<?xml version="1.0" encoding="UTF-8" standalone="no"?>
<svg width="394px" height="95px" viewBox="0 0 394 95" version="1.1" xmlns="http://www.w3.org/2000/svg" xmlns:xlink="http://www.w3.org/1999/xlink">
    <!-- Generator: Sketch 3.6.1 (26313) - http://www.bohemiancoding.com/sketch -->
    <title>logo-400</title>
    <desc>Created with Sketch.</desc>
    <defs>
        <linearGradient x1="14.6584651%" y1="14.636103%" x2="85.341979%" y2="85.3714527%" id="linearGradient-1">
            <stop stop-color="#C869A8" offset="20%"></stop>
            <stop stop-color="#6E7EBB" offset="50%"></stop>
            <stop stop-color="#00BCF1" offset="80%"></stop>
        </linearGradient>
    </defs>
    <g id="Page-1" stroke="none" stroke-width="1" fill="none" fill-rule="evenodd">
        <g id="Artboard-2" transform="translate(-32.000000, -25.000000)">
            <g id="logo-400" transform="translate(30.000000, 23.000000)">
                <g id="Symbol_3_" transform="translate(298.429496, 0.000000)">
                    <path d="M49.6874529,2.08842105 C23.3748607,2.08842105 2.03397692,23.3010526 2.03397692,49.4631579 C2.03397692,75.6147368 23.3748607,96.8231579 49.6874529,96.8231579 C76.0127442,96.8231579 97.3451618,75.6147368 97.3451618,49.4631579 C97.3430453,23.3010526 76.0127442,2.08842105 49.6874529,2.08842105 L49.6874529,2.08842105 Z M49.6874529,95.7305263 C23.9823023,95.7305263 3.13880101,75.0105263 3.13880101,49.4568421 C3.13880101,23.8968421 23.9823023,3.18315789 49.6874529,3.18315789 C75.3968365,3.18315789 96.2445708,23.8968421 96.2445708,49.4568421 C96.2445708,75.0105263 75.3968365,95.7305263 49.6874529,95.7305263 L49.6874529,95.7305263 Z M47.1179961,8.99578947 C47.1179961,8.50105263 47.3783282,8.20842105 47.7910498,8.20842105 C48.4450549,8.18105263 49.0313313,8.16631579 49.6853363,8.16631579 C72.6263102,8.16631579 91.2284154,26.6378947 91.2284154,49.4547368 C91.2284154,72.2589474 72.6263102,90.7452632 49.6853363,90.7452632 C26.7528286,90.7452632 8.15072333,72.2589474 8.15072333,49.4547368 C8.15072333,31.6631579 19.4508303,16.5242105 35.3035744,10.7052632 C35.6887813,10.5557895 36.0401238,10.7578947 36.1967464,11.2021053 C36.3660681,11.6421053 36.2390768,12.0231579 35.8411708,12.1726316 C20.5979848,17.7726316 9.72753166,32.3473684 9.72753166,49.4526316 C9.72753166,71.3936842 27.6184858,89.1768421 49.6853363,89.1768421 C71.7585364,89.1768421 89.6494906,71.3936842 89.6494906,49.4526316 C89.6494906,27.4947368 71.7585364,9.71578947 49.6853363,9.71578947 C49.0524965,9.71578947 48.4111905,9.73052632 47.7783507,9.75578947 C47.361396,9.75789474 47.1179961,9.46315789 47.1179961,8.99578947 L47.1179961,8.99578947 Z M48.5170166,74.6463158 C48.8471939,74.6589474 49.355159,74.6631579 49.6874529,74.6631579 C63.6945905,74.6631579 75.0433774,63.3810526 75.0433774,49.4610526 C75.0433774,35.5389474 63.692474,24.2547368 49.6874529,24.2547368 C49.3615086,24.2547368 48.8450774,24.2589474 48.5170166,24.2715789 C47.6344272,24.2715789 47.1179961,23.6231579 47.1179961,22.6210526 C47.1179961,21.6126316 47.6344272,20.9684211 48.5170166,20.9684211 C48.8852913,20.9557895 49.3191782,20.9494737 49.6874529,20.9494737 C65.5296144,20.9494737 78.3747819,33.7094737 78.3747819,49.4610526 C78.3747819,65.2063158 65.5317309,77.9684211 49.6874529,77.9684211 C49.3149451,77.9684211 48.8852913,77.9557895 48.5170166,77.9431579 C47.6344272,77.9431579 47.1179961,77.2884211 47.1179961,76.2947368 C47.1179961,75.2863158 47.6344272,74.6463158 48.5170166,74.6463158 L48.5170166,74.6463158 Z M49.6874529,82.0968421 C67.82604,82.0968421 82.5231635,67.4842105 82.5231635,49.4610526 C82.5231635,31.4252632 67.82604,16.8105263 49.6874529,16.8105263 C49.2281677,16.8105263 48.6630566,16.8231579 48.1974219,16.8378947 C47.5243681,16.8378947 47.1179961,16.3473684 47.1179961,15.5663158 C47.1179961,14.7810526 47.5222516,14.2926316 48.1974219,14.2926316 C48.6990374,14.2757895 49.1900704,14.2673684 49.6874529,14.2673684 C69.2462257,14.2673684 85.0968534,30.0147368 85.0968534,49.4631579 C85.0968534,68.8947368 69.2462257,84.6526316 49.6874529,84.6526316 C49.1921869,84.6526316 48.6905713,84.64 48.1974219,84.6189474 C47.5201351,84.6189474 47.1179961,84.1347368 47.1179961,83.3452632 C47.1179961,82.5642105 47.5180186,82.0736842 48.1974219,82.0736842 C48.656707,82.0842105 49.2281677,82.0968421 49.6874529,82.0968421 L49.6874529,82.0968421 Z M35.7057135,79 C36.3173881,79.2884211 36.4126316,79.9178947 36.0866873,80.6126316 C35.7522769,81.3115789 35.2252632,81.5957895 34.6135885,81.3073684 C22.5959809,75.6863158 14.2865184,63.52 14.2865184,49.4610526 C14.2865184,35.3894737 22.5832817,23.2631579 34.5712581,17.6252632 C35.1829327,17.3494737 35.7670926,17.6231579 36.0930369,18.3115789 C36.4274472,19.0294737 36.2750577,19.6526316 35.6633831,19.9326316 C24.5389474,25.1515789 16.8623248,36.4105263 16.8496257,49.4610526 C16.8432761,62.4947368 24.5579961,73.7663158 35.7057135,79 L35.7057135,79 Z M35.6528005,70.4505263 C36.3851168,70.9389474 36.4634281,71.7621053 35.9004334,72.6 C35.3459049,73.4336842 34.5437433,73.6863158 33.811427,73.1957895 C25.7940445,67.8947368 21.0085899,59.0147368 21.0085899,49.4589474 C21.0085899,39.8989474 25.7940445,31.0105263 33.811427,25.7136842 C34.5395103,25.2189474 35.3459049,25.4842105 35.9046665,26.3178947 C36.4634281,27.1515789 36.3851168,27.9810526 35.6528005,28.4589474 C28.5666873,33.1494737 24.3294118,40.9978947 24.3294118,49.4589474 C24.3294118,57.9052632 28.5666873,65.7642105 35.6528005,70.4505263 L35.6528005,70.4505263 Z M32.7277681,62.0105263 C30.0673009,58.4568421 28.5412891,54.12 28.5412891,49.4652632 C28.5412891,44.9305263 29.9932226,40.5663158 32.723535,36.9073684 C33.364841,36.0757895 34.3786547,36.0442105 35.3416718,36.7831579 C36.3068055,37.4989474 36.5502055,38.4778947 35.9173656,39.3157895 C33.7119505,42.2631579 32.5457473,45.7705263 32.5457473,49.4631579 C32.5457473,53.1515789 33.7204165,56.6547368 35.9258317,59.6021053 C36.5544385,60.4357895 36.3110386,61.4105263 35.3459049,62.1347368 C34.3828877,62.8694737 33.364841,62.8484211 32.7277681,62.0105263 L32.7277681,62.0105263 Z" id="pb_outer_3_" fill="url(#linearGradient-1)"></path>
                    <path d="M42.1420546,34.3789474 C40.3620602,34.8757895 39.2085561,33.5810526 39.2085561,32.1852632 L39.2085561,10.68 C39.2085561,9.35578947 40.1885055,8.58947368 41.6975851,8.58947368 C43.2066648,8.58947368 44.1760315,9.35368421 44.1760315,10.68 L44.1760315,28.6547368 C45.9390937,28.1978947 47.7868168,27.9452632 49.6895694,27.9452632 C61.6606136,27.9452632 71.3606305,37.5978947 71.3606305,49.4989474 C71.3606305,61.3936842 61.6606136,71.0336842 49.6895694,71.0336842 L49.2260512,71.0168421 C47.905342,71.0168421 47.1158795,70.0421053 47.1158795,68.5326316 C47.1158795,67.0357895 47.905342,66.0610526 49.2260512,66.0610526 C49.3742077,66.0610526 49.5329468,66.0694737 49.6895694,66.0694737 C58.7609795,66.0694737 66.340242,58.7789474 66.340242,49.4610526 C66.340242,40.0252632 58.5916578,32.8273684 49.8144441,32.8273684 C45.5750521,32.8273684 43.9326316,33.8715789 42.1420546,34.3789474 L42.1420546,34.3789474 Z M59.0318942,40.1684211 C56.5428652,37.6884211 53.2241599,36.3368421 49.6959189,36.3368421 C44.9189305,36.3368421 39.5154517,38.7663158 39.2276048,41.0126316 C39.1831579,41.3621053 39.2106727,43.3642105 39.2106727,43.3642105 L39.2106727,81.6652632 C39.2106727,83.1536842 40.1821559,83.8568421 41.6954686,83.8568421 C43.1135379,83.8568421 44.178148,83.1957895 44.178148,81.6652632 L44.178148,43.1031579 C45.6427807,41.7915789 47.5772812,41.2526316 49.6916859,41.2526316 C54.2422066,41.2526316 57.9397692,44.9368421 57.9397692,49.4589474 C57.9397692,53.9747368 54.2400901,57.6547368 49.6916859,57.6547368 C49.6303068,57.6547368 49.2662651,57.6631579 49.2070025,57.6631579 C47.8989924,57.6631579 47.1179961,58.6210526 47.1179961,60.1221053 C47.1179961,61.6021053 47.8989924,62.5726316 49.2070025,62.5726316 C49.2980129,62.5726316 49.5964424,62.5936842 49.6916859,62.5936842 C53.2241599,62.5936842 56.5428652,61.2252632 59.0318942,58.7368421 C61.5272727,56.2526316 62.9051281,52.96 62.9051281,49.4610526 C62.9030115,45.9578947 61.5251562,42.6505263 59.0318942,40.1684211 L59.0318942,40.1684211 Z" id="pb_inner_3_" fill="#3E53A4"></path>
                </g>
                <path d="M267.748404,61.2863158 C269.407757,62.4673684 272.248128,63.1936842 275.198559,63.1936842 C281.353403,63.1936842 285.031917,60.0568421 285.031917,54.9578947 C285.031917,50.9536842 282.906929,48.8968421 277.164807,46.9936842 C273.338137,45.76 271.733814,44.5768421 271.733814,42.7263158 C271.733814,40.3621053 273.757208,39.1768421 276.697056,39.1768421 C279.340591,39.1768421 281.87195,39.8463158 284.151444,41.2336842 L284.151444,37.6842105 C282.646597,36.5536842 279.492981,35.7305263 276.804999,35.7305263 C271.113673,35.7305263 267.646811,38.3536842 267.646811,42.8273684 C267.646811,46.2736842 269.665972,48.6905263 274.525505,50.2821053 C279.179735,51.7747368 280.940681,52.7536842 280.940681,55.2694737 C280.940681,57.9915789 278.76913,59.6947368 275.198559,59.6947368 C272.347605,59.6947368 269.354844,58.8715789 267.748404,57.6884211 L267.748404,61.2863158 L267.748404,61.2863158 Z M244.492069,46.9936842 C244.95982,42.2084211 247.539859,39.2273684 252.14541,39.2273684 C256.856786,39.2273684 259.231523,41.7978947 259.388145,46.9936842 L244.492069,46.9936842 L244.492069,46.9936842 Z M262.852891,57.84 C260.785049,58.8715789 257.472693,59.5915789 254.266164,59.5915789 C247.850988,59.5915789 244.595778,56.5621053 244.335446,50.4378947 L263.371438,50.4378947 C263.424351,49.7178947 263.528061,48.28 263.528061,47.7115789 C263.528061,40.3052632 259.75007,35.7305263 252.458655,35.7305263 C244.28465,35.7305263 240.144734,41.6968421 240.144734,49.5136842 C240.144734,58.3052632 244.803197,63.1936842 253.749733,63.1936842 C257.320304,63.1936842 260.736369,62.5726316 262.852891,61.3431579 L262.852891,57.84 L262.852891,57.84 Z M230.569592,62.5726316 L238.172136,36.3473684 L234.085134,36.3473684 L228.60546,56.9684211 L222.499296,36.3473684 L217.944543,36.3473684 L211.893408,57.2231579 L206.462415,36.3473684 L202.015604,36.3473684 L209.613915,62.5726316 L213.910453,62.5726316 L220.22192,41.7410526 L226.273054,62.5726316 L230.569592,62.5726316 L230.569592,62.5726316 Z M187.684638,59.5915789 C182.408151,59.5915789 179.45772,55.5831579 179.45772,49.5136842 C179.45772,43.3410526 182.410267,39.3284211 187.684638,39.3284211 C192.959009,39.3284211 195.907323,43.3410526 195.907323,49.4063158 C195.907323,55.5831579 192.908213,59.5915789 187.684638,59.5915789 L187.684638,59.5915789 Z M187.684638,63.1936842 C196.061829,63.1936842 200.254658,57.12 200.254658,49.4610526 C200.254658,41.7431579 196.63329,35.7326316 187.684638,35.7326316 C179.305331,35.7326316 175.112502,41.7978947 175.112502,49.4610526 C175.110386,57.1747368 178.735986,63.1936842 187.684638,63.1936842 L187.684638,63.1936842 Z M151.636048,40.7221053 C153.498587,39.7431579 155.411922,39.3284211 157.892485,39.3284211 C163.583811,39.3284211 166.843254,43.0821053 166.843254,48.6378947 C166.843254,55.6863158 162.96367,59.5915789 156.188686,59.5915789 C154.326147,59.5915789 153.032952,59.3852632 151.636048,58.8715789 L151.636048,40.7221053 L151.636048,40.7221053 Z M147.496133,61.8 C150.029609,62.6231579 152.774737,63.1936842 155.824644,63.1936842 C165.393437,63.1936842 171.186355,57.8968421 171.186355,48.5873684 C171.186355,40.5621053 166.220996,35.7305263 158.305207,35.7305263 C155.97915,35.7305263 153.805483,36.1410526 151.633932,37.0715789 L151.633932,23.9557895 L147.494016,23.9557895 L147.494016,61.8 L147.496133,61.8 Z M121.699972,75.8905263 L126.72036,62.5726316 L137.218306,36.3473684 L132.667785,36.3473684 L124.652519,57.7915789 L116.78541,36.3473684 L112.080383,36.3473684 L122.580445,62.5726316 L117.50926,75.8905263 L121.699972,75.8905263 L121.699972,75.8905263 Z M90.7585477,46.9936842 C91.2220659,42.2084211 93.8105713,39.2273684 98.4161216,39.2273684 C103.123265,39.2273684 105.504351,41.7978947 105.658857,46.9936842 L90.7585477,46.9936842 L90.7585477,46.9936842 Z M109.123603,57.84 C107.053645,58.8715789 103.743406,59.5915789 100.536876,59.5915789 C94.1217,59.5915789 90.8622572,56.5621053 90.6061582,50.4378947 L109.64215,50.4378947 C109.69083,49.7178947 109.796656,48.28 109.796656,47.7115789 C109.796656,40.3052632 106.020782,35.7305263 98.7272502,35.7305263 C90.5532451,35.7305263 86.4154461,41.6968421 86.4154461,49.5136842 C86.4154461,58.3052632 91.0717929,63.1936842 100.020445,63.1936842 C103.593133,63.1936842 107.004965,62.5726316 109.125719,61.3431579 L109.125719,57.84 L109.123603,57.84 Z M81.9644019,62.5726316 L81.9644019,45.3978947 C81.9644019,37.9957895 77.4625612,35.7305263 71.7225556,35.7305263 C67.8429721,35.7305263 63.2374219,36.7094737 59.8763862,37.9431579 L59.8763862,62.5726316 L64.0163017,62.5726316 L64.0163017,40.6189474 C65.7243344,39.9494737 68.4123164,39.4357895 70.7404897,39.4357895 C75.549226,39.4357895 77.8244863,41.08 77.8244863,46.8378947 L77.8244863,62.5747368 L81.9644019,62.5747368 L81.9644019,62.5726316 Z M55.8952097,58.9747368 C54.4983057,59.3852632 53.0484886,59.64 51.2367464,59.64 C49.3742077,59.64 47.9773037,59.1263158 47.9773037,55.7347368 L47.9773037,39.7936842 L54.9089108,39.7936842 L54.9089108,36.3473684 L47.9773037,36.3473684 L47.9773037,29.8694737 L43.8924177,29.8694737 L43.8924177,36.3473684 L39.4942865,36.3473684 L39.4942865,39.7936842 L43.8924177,39.7936842 L43.8924177,56.5073684 C43.8924177,61.2357895 46.3729806,63.1936842 50.2546806,63.1936842 C52.4241148,63.1936842 54.2887701,62.8863158 55.8952097,62.2694737 L55.8952097,58.9747368 L55.8952097,58.9747368 Z M32.9457698,31.4126316 C34.4463833,31.4126316 35.6358683,30.2294737 35.6358683,28.7389474 C35.6358683,27.2463158 34.4463833,26.0126316 32.9457698,26.0126316 C31.3943597,26.0126316 30.2048748,27.2463158 30.2048748,28.7389474 C30.2048748,30.2294737 31.3943597,31.4126316 32.9457698,31.4126316 L32.9457698,31.4126316 Z M34.9628145,36.3473684 L30.827132,36.3473684 L30.827132,62.5726316 L34.9628145,62.5726316 L34.9628145,36.3473684 L34.9628145,36.3473684 Z M6.23950464,40.9768421 C7.99621728,39.8463158 10.0153786,39.3284211 12.5001745,39.3284211 C18.1893836,39.3284211 21.4488263,43.0821053 21.4488263,48.6378947 C21.4488263,55.6863158 17.5692429,59.5915789 10.7413453,59.5915789 C8.87880664,59.5915789 7.58561216,59.3852632 6.24162117,58.8715789 L6.24162117,40.9768421 L6.23950464,40.9768421 Z M6.23950464,75.8905263 L6.23950464,62.6210526 C7.58349564,62.9831579 9.03331269,63.1915789 10.5318097,63.1915789 C19.9482128,63.1915789 25.7898114,57.8947368 25.7898114,48.5852632 C25.7898114,40.6168421 20.7736561,35.7284211 12.9128961,35.7284211 C9.18781874,35.7284211 5.31035182,36.8589474 2.09958908,39.5326316 L2.09958908,75.8905263 L6.23950464,75.8905263 L6.23950464,75.8905263 Z" id="Wordmark_3_" fill="#4E4E4E"></path>
            </g>
        </g>
    </g>
</svg>