<?xml version="1.0" encoding="UTF-8" standalone="no"?>
<svg width="72px" height="71px" viewBox="0 0 72 71" version="1.1" xmlns="http://www.w3.org/2000/svg" xmlns:xlink="http://www.w3.org/1999/xlink">
    <!-- Generator: Sketch 3.6.1 (26313) - http://www.bohemiancoding.com/sketch -->
    <title>Adobe_Illustrator_CC_icon</title>
    <desc>Created with Sketch.</desc>
    <defs></defs>
    <g id="Page-1" stroke="none" stroke-width="1" fill="none" fill-rule="evenodd">
        <g id="Adobe_Illustrator_CC_icon">
            <g id="icon">
                <rect id="Rectangle-path" fill="#DA1F26" x="1.61176471" y="1.52941176" width="68.7529412" height="66.9647059"></rect>
                <path d="M68.8352941,3.07058824 L68.8352941,66.9647059 L3.15294118,66.9647059 L3.15294118,3.07058824 L68.8352941,3.07058824 L68.8352941,3.07058824 Z M71.9058824,0 L0.0823529412,0 L0.0823529412,70.0352941 L71.9058824,70.0352941 L71.9058824,0 L71.9058824,0 L71.9058824,0 Z" id="Shape" fill="#FFFFFF"></path>
            </g>
            <g id="A" transform="translate(15.882353, 17.529412)" fill="#FFFFFF">
                <path d="M9.91764706,25.1058824 L6.58823529,34.3411765 C6.54117647,34.6588235 6.31764706,34.7647059 6.01176471,34.7647059 L0.517647059,34.7647059 C0.141176471,34.7647059 0.0470588235,34.5529412 0.141176471,34.2352941 C3.15294118,25.9882353 8.05882353,12.5764706 11.5529412,3.32941176 C11.7058824,2.90588235 11.9294118,2.31764706 12.0235294,0.423529412 C12.0235294,0.152941176 12.1764706,0.0470588235 12.4,0.0470588235 L19.8,0.0470588235 C20.0117647,0.0470588235 20.1176471,0.0941176471 20.2235294,0.317647059 C24.3411765,11.5176471 28.6235294,23.1411765 32.8470588,34.2823529 C32.9529412,34.6 32.8470588,34.7529412 32.5294118,34.7529412 L26.4588235,34.7529412 C26.1882353,34.7529412 26.0823529,34.6470588 25.9882353,34.4352941 L22.4941176,25.0823529 L9.91764706,25.1058824 L9.91764706,25.1058824 L9.91764706,25.1058824 Z M21,19.9294118 C19.8823529,16.3882353 17.1882353,9.21176471 16.0941176,5.44705882 L16.0470588,5.44705882 C15.2,8.94117647 12.9764706,15.0588235 11.3411765,19.9294118 L21,19.9294118 L21,19.9294118 Z" id="Shape"></path>
            </g>
            <g id="i" transform="translate(50.000000, 18.470588)" fill="#FFFFFF">
                <rect id="Rectangle-path" x="0.0705882353" y="7.89411765" width="6.12941176" height="25.9411765"></rect>
                <circle id="Oval" cx="3.12941176" cy="3.03529412" r="2.95294118"></circle>
            </g>
        </g>
    </g>
</svg>