<svg width="67" height="80" viewBox="0 0 67 80" xmlns="http://www.w3.org/2000/svg"><title>android</title><desc>Created with Sketch.</desc><path d="M13.347 59.979c0 2.002 1.335 3.337 3.337 3.337h3.337v11.679c0 2.669 2.336 5.005 5.005 5.005s5.005-2.336 5.005-5.005v-11.679h6.674v11.679c0 2.669 2.336 5.005 5.005 5.005s5.005-2.336 5.005-5.005v-11.679h3.337c2.002 0 3.337-1.335 3.337-3.337v-33.368h-40.042v33.368zm-8.342-33.368c-2.669 0-5.005 2.336-5.005 5.005v23.358c0 2.669 2.336 5.005 5.005 5.005s5.005-2.336 5.005-5.005v-23.358c0-2.669-2.336-5.005-5.005-5.005zm56.726 0c-2.669 0-5.005 2.336-5.005 5.005v23.358c0 2.669 2.336 5.005 5.005 5.005s5.005-2.336 5.005-5.005v-23.358c0-2.669-2.336-5.005-5.005-5.005zm-16.684-19.353l4.338-4.338c.667-.667.667-1.668 0-2.336-.667-.667-1.668-.667-2.336 0l-5.005 5.005c-2.336-1.668-5.339-2.336-8.676-2.336-3.337 0-6.34.667-9.009 2.002l-4.672-5.005c-.667-.334-2.002-.334-2.669 0-.334.667-.334 2.002 0 2.669l4.338 4.338c-4.672 3.67-8.008 9.343-8.008 16.017h40.042c0-6.673-3.337-12.68-8.342-16.016zm-18.352 9.343h-3.337v-3.337h3.337v3.337zm16.684 0h-3.337v-3.337h3.337v3.337z" fill="#fff"/></svg>