<svg width="66" height="80" viewBox="0 0 66 80" xmlns="http://www.w3.org/2000/svg"><title>apple</title><desc>Created with Sketch.</desc><path d="M54.406 42.507c-.101-10.131 8.262-14.99 8.636-15.232-4.699-6.877-12.02-7.819-14.628-7.927-6.23-.631-12.156 3.668-15.318 3.668-3.154 0-8.033-3.575-13.199-3.481-6.79.101-13.051 3.948-16.548 10.03-7.055 12.242-1.807 30.378 5.07 40.307 3.36 4.86 7.367 10.318 12.627 10.123 5.066-.202 6.981-3.278 13.106-3.278 6.124 0 7.846 3.278 13.207 3.177 5.451-.101 8.905-4.953 12.242-9.828 3.858-5.638 5.447-11.097 5.541-11.377-.121-.055-10.63-4.081-10.735-16.182zm-10.073-29.732c2.792-3.387 4.677-8.087 4.162-12.775-4.022.164-8.897 2.679-11.782 6.059-2.589 2.998-4.855 7.783-4.248 12.378 4.49.35 9.073-2.282 11.868-5.661z" fill="#fff"/></svg>