<svg width="89" height="74" viewBox="0 0 89 74" xmlns="http://www.w3.org/2000/svg"><title>gem</title><desc>Created with Sketch.</desc><path d="M71.389 0h-53.778l-17.611 22.111 44.5 51.889 44.5-51.889-17.611-22.111zm9.871 20.378h-18.161l6.933-14.112 11.228 14.112zm-14.353-15.855l-7.168 14.584-11.287-14.584h18.455zm-10.587 15.855h-21.911l10.197-15.124 11.714 15.124zm-15.469-15.855l-9.572 14.209-8.926-14.209h18.498zm-21.708 1.53l9 14.325h-20.405l11.404-14.325zm-11.399 17.5h22.028l10.416 37.818-32.444-37.818zm25.794 0h24.293l-13.183 40.35-11.11-40.35zm16.03 36.931l12.066-36.931h19.614l-31.68 36.931z" fill="#fff"/></svg>