<?xml version="1.0" encoding="UTF-8" standalone="no"?>
<svg width="151px" height="84px" viewBox="0 0 151 84" version="1.1" xmlns="http://www.w3.org/2000/svg" xmlns:xlink="http://www.w3.org/1999/xlink">
    <!-- Generator: Sketch 3.6.1 (26313) - http://www.bohemiancoding.com/sketch -->
    <title>responsive_web</title>
    <desc>Created with Sketch.</desc>
    <defs></defs>
    <g id="Page-1" stroke="none" stroke-width="1" fill="none" fill-rule="evenodd">
        <g id="responsive_web" transform="translate(1.000000, 1.000000)" stroke-width="2" stroke="#FFFFFF">
            <g id="desktop">
                <path d="M52.4745763,67.0508475 L52.4745763,81.6271186" id="Shape"></path>
                <path d="M34.9830508,81.6271186 L34.9830508,67.0508475" id="Shape"></path>
                <path d="M23.3220339,81.6271186 L64.1355932,81.6271186" id="Shape"></path>
                <path d="M40.8135593,11.6610169 L46.6440678,11.6610169" id="Shape"></path>
                <path d="M81.6271186,67.0508475 L5.83050847,67.0508475 C2.62372881,67.0508475 0,64.4271186 0,61.220339 L0,5.83050847 C0,2.62372881 2.62372881,0 5.83050847,0 L81.6271186,0 C84.8338983,0 87.4576271,2.62372881 87.4576271,5.83050847 L87.4576271,61.220339 C87.4576271,64.4271186 84.8338983,67.0508475 81.6271186,67.0508475 L81.6271186,67.0508475 Z" id="Shape"></path>
                <path d="M0,49.559322 L87.4576271,49.559322" id="Shape"></path>
            </g>
            <g id="mobile" transform="translate(94.745763, 19.322034)">
                <path d="M31.1882948,58.54271 L6.37675812,58.54271 C2.95069843,58.54271 0.17387395,55.7658855 0.17387395,52.3398258 L0.17387395,6.85200861 C0.17387395,3.42594892 2.95069843,0.64912444 6.37675812,0.64912444 L37.3911789,0.64912444 C40.8172386,0.64912444 43.5940631,3.42594892 43.5940631,6.85200861 L43.5940631,25.4606611" id="Shape"></path>
                <path d="M31.1882948,46.1369417 L8.44438617,46.1369417 L8.44438617,8.91963666 L35.3235509,8.91963666 L35.3235509,25.4606611" id="Shape"></path>
                <path d="M31.1882948,49.559322 L53.9322034,49.559322" id="Shape"></path>
                <path d="M31.1882948,33.5254237 L53.9322034,33.5254237" id="Shape"></path>
                <path d="M20.8501545,51.0169492 L24.9854106,51.0169492" id="Shape"></path>
                <path d="M49.7969473,62.6779661 L35.3235509,62.6779661 C33.0398557,62.6779661 31.1882948,60.8264052 31.1882948,58.54271 L31.1882948,29.5959172 C31.1882948,27.312222 33.0398557,25.4606611 35.3235509,25.4606611 L49.7969473,25.4606611 C52.0806425,25.4606611 53.9322034,27.312222 53.9322034,29.5959172 L53.9322034,58.54271 C53.9322034,60.8264052 52.0806425,62.6779661 49.7969473,62.6779661 L49.7969473,62.6779661 Z" id="Shape"></path>
                <path d="M41.5264351,55.3898305 L43.5940631,55.3898305" id="Shape"></path>
            </g>
        </g>
    </g>
</svg>