<?xml version="1.0" encoding="UTF-8" standalone="no"?>
<svg width="16px" height="16px" viewBox="0 0 16 16" version="1.1" xmlns="http://www.w3.org/2000/svg" xmlns:xlink="http://www.w3.org/1999/xlink" xmlns:sketch="http://www.bohemiancoding.com/sketch/ns">
    <!-- Generator: Sketch 3.3.3 (12072) - http://www.bohemiancoding.com/sketch -->
    <title>app-launcher</title>
    <desc>Created with Sketch.</desc>
    <defs></defs>
    <g id="Page-1" stroke="none" stroke-width="1" fill="none" fill-rule="evenodd" sketch:type="MSPage">
        <g id="app-launcher" sketch:type="MSLayerGroup" fill="#FFFFFF">
            <path d="M10.0890801,0.00448146453 L6.13484668,0.00448146453 C5.95295195,0.00448146453 5.80532723,0.152106178 5.80532723,0.334000915 L5.80532723,4.28823432 C5.80532723,4.47012906 5.95295195,4.61775378 6.13484668,4.61775378 L10.0890801,4.61775378 C10.2709748,4.61775378 10.4185995,4.47012906 10.4185995,4.28823432 L10.4185995,0.334000915 C10.4185995,0.152106178 10.2709748,0.00448146453 10.0890801,0.00448146453" id="Fill-3172" sketch:type="MSShapeGroup"></path>
            <path d="M4.81676888,0.00448146453 L0.862535469,0.00448146453 C0.680640732,0.00448146453 0.533016018,0.152106178 0.533016018,0.334000915 L0.533016018,4.28823432 C0.533016018,4.47012906 0.680640732,4.61775378 0.862535469,4.61775378 L4.81676888,4.61775378 C4.99866362,4.61775378 5.14628833,4.47012906 5.14628833,4.28823432 L5.14628833,0.334000915 C5.14628833,0.152106178 4.99866362,0.00448146453 4.81676888,0.00448146453" id="Fill-3173" opacity="0.8" sketch:type="MSShapeGroup"></path>
            <path d="M15.3613913,0.00448146453 L11.4071579,0.00448146453 C11.2252632,0.00448146453 11.0776384,0.152106178 11.0776384,0.334000915 L11.0776384,4.28823432 C11.0776384,4.47012906 11.2252632,4.61775378 11.4071579,4.61775378 L15.3613913,4.61775378 C15.543286,4.61775378 15.6909108,4.47012906 15.6909108,4.28823432 L15.6909108,0.334000915 C15.6909108,0.152106178 15.543286,0.00448146453 15.3613913,0.00448146453" id="Fill-3174" opacity="0.8" sketch:type="MSShapeGroup"></path>
            <path d="M10.0890801,5.27679268 L6.13484668,5.27679268 C5.95295195,5.27679268 5.80532723,5.42441739 5.80532723,5.60631213 L5.80532723,9.56054554 C5.80532723,9.74244027 5.95295195,9.89006499 6.13484668,9.89006499 L10.0890801,9.89006499 C10.2709748,9.89006499 10.4185995,9.74244027 10.4185995,9.56054554 L10.4185995,5.60631213 C10.4185995,5.42441739 10.2709748,5.27679268 10.0890801,5.27679268" id="Fill-3175" opacity="0.8" sketch:type="MSShapeGroup"></path>
            <path d="M4.81676888,5.27679268 L0.862535469,5.27679268 C0.680640732,5.27679268 0.533016018,5.42441739 0.533016018,5.60631213 L0.533016018,9.56054554 C0.533016018,9.74244027 0.680640732,9.89006499 0.862535469,9.89006499 L4.81676888,9.89006499 C4.99866362,9.89006499 5.14628833,9.74244027 5.14628833,9.56054554 L5.14628833,5.60631213 C5.14628833,5.42441739 4.99866362,5.27679268 4.81676888,5.27679268" id="Fill-3176" sketch:type="MSShapeGroup"></path>
            <path d="M15.3613913,5.27679268 L11.4071579,5.27679268 C11.2252632,5.27679268 11.0776384,5.42441739 11.0776384,5.60631213 L11.0776384,9.56054554 C11.0776384,9.74244027 11.2252632,9.89006499 11.4071579,9.89006499 L15.3613913,9.89006499 C15.543286,9.89006499 15.6909108,9.74244027 15.6909108,9.56054554 L15.6909108,5.60631213 C15.6909108,5.42441739 15.543286,5.27679268 15.3613913,5.27679268" id="Fill-3177" sketch:type="MSShapeGroup"></path>
            <path d="M10.0890801,10.5491039 L6.13484668,10.5491039 C5.95295195,10.5491039 5.80532723,10.6967286 5.80532723,10.8786233 L5.80532723,14.8328568 C5.80532723,15.0147515 5.95295195,15.1623762 6.13484668,15.1623762 L10.0890801,15.1623762 C10.2709748,15.1623762 10.4185995,15.0147515 10.4185995,14.8328568 L10.4185995,10.8786233 C10.4185995,10.6967286 10.2709748,10.5491039 10.0890801,10.5491039" id="Fill-3178" sketch:type="MSShapeGroup"></path>
            <path d="M4.81676888,10.5491039 L0.862535469,10.5491039 C0.680640732,10.5491039 0.533016018,10.6967286 0.533016018,10.8786233 L0.533016018,14.8328568 C0.533016018,15.0147515 0.680640732,15.1623762 0.862535469,15.1623762 L4.81676888,15.1623762 C4.99866362,15.1623762 5.14628833,15.0147515 5.14628833,14.8328568 L5.14628833,10.8786233 C5.14628833,10.6967286 4.99866362,10.5491039 4.81676888,10.5491039" id="Fill-3179" opacity="0.8" sketch:type="MSShapeGroup"></path>
            <path d="M15.3613913,10.5491039 L11.4071579,10.5491039 C11.2252632,10.5491039 11.0776384,10.6967286 11.0776384,10.8786233 L11.0776384,14.8328568 C11.0776384,15.0147515 11.2252632,15.1623762 11.4071579,15.1623762 L15.3613913,15.1623762 C15.543286,15.1623762 15.6909108,15.0147515 15.6909108,14.8328568 L15.6909108,10.8786233 C15.6909108,10.6967286 15.543286,10.5491039 15.3613913,10.5491039" id="Fill-3180" opacity="0.8" sketch:type="MSShapeGroup"></path>
        </g>
    </g>
</svg>