<?xml version="1.0" encoding="UTF-8" standalone="no"?>
<svg width="94px" height="23px" viewBox="0 0 94 23" version="1.1" xmlns="http://www.w3.org/2000/svg" xmlns:xlink="http://www.w3.org/1999/xlink" xmlns:sketch="http://www.bohemiancoding.com/sketch/ns">
    <!-- Generator: Sketch 3.3.3 (12072) - http://www.bohemiancoding.com/sketch -->
    <title>logo-color</title>
    <desc>Created with Sketch.</desc>
    <defs>
        <linearGradient x1="14.6584651%" y1="14.636103%" x2="85.341979%" y2="85.3714527%" id="linearGradient-1">
            <stop stop-color="#C869A8" offset="20%"></stop>
            <stop stop-color="#6E7EBB" offset="50%"></stop>
            <stop stop-color="#00BCF1" offset="80%"></stop>
        </linearGradient>
    </defs>
    <g id="Page-1" stroke="none" stroke-width="1" fill="none" fill-rule="evenodd" sketch:type="MSPage">
        <g id="icon-bits" sketch:type="MSArtboardGroup" transform="translate(-32.000000, -15.000000)">
            <g id="logo-color" sketch:type="MSLayerGroup" transform="translate(32.000000, 15.000000)">
                <g id="Logo_2_" sketch:type="MSShapeGroup">
                    <g id="Symbol_3_" transform="translate(70.877005, 0.000000)">
                        <path d="M11.8007701,0.496 C5.55152941,0.496 0.483069519,5.534 0.483069519,11.7475 C0.483069519,17.9585 5.55152941,22.9955 11.8007701,22.9955 C18.0530267,22.9955 23.1194759,17.9585 23.1194759,11.7475 C23.1189733,5.534 18.0530267,0.496 11.8007701,0.496 L11.8007701,0.496 Z M11.8007701,22.736 C5.69579679,22.736 0.745465241,17.815 0.745465241,11.746 C0.745465241,5.6755 5.69579679,0.756 11.8007701,0.756 C17.9067487,0.756 22.8580856,5.6755 22.8580856,11.746 C22.8580856,17.815 17.9067487,22.736 11.8007701,22.736 L11.8007701,22.736 Z M11.1905241,2.1365 C11.1905241,2.019 11.2523529,1.9495 11.3503743,1.9495 C11.5057005,1.943 11.6449412,1.9395 11.8002674,1.9395 C17.2487487,1.9395 21.6667487,6.3265 21.6667487,11.7455 C21.6667487,17.1615 17.2487487,21.552 11.8002674,21.552 C6.35379679,21.552 1.93579679,17.1615 1.93579679,11.7455 C1.93579679,7.52 4.61957219,3.9245 8.38459893,2.5425 C8.47608556,2.507 8.55952941,2.555 8.59672727,2.6605 C8.63694118,2.765 8.60678075,2.8555 8.51227807,2.891 C4.89202139,4.221 2.31028877,7.6825 2.31028877,11.745 C2.31028877,16.956 6.55939037,21.1795 11.8002674,21.1795 C17.0426524,21.1795 21.291754,16.956 21.291754,11.745 C21.291754,6.53 17.0426524,2.3075 11.8002674,2.3075 C11.6499679,2.3075 11.4976578,2.311 11.3473583,2.317 C11.2483316,2.3175 11.1905241,2.2475 11.1905241,2.1365 L11.1905241,2.1365 Z M11.5227914,17.7285 C11.6012086,17.7315 11.7218503,17.7325 11.8007701,17.7325 C15.1274652,17.7325 17.8228021,15.053 17.8228021,11.747 C17.8228021,8.4405 15.1269626,5.7605 11.8007701,5.7605 C11.7233583,5.7605 11.6007059,5.7615 11.5227914,5.7645 C11.3131765,5.7645 11.1905241,5.6105 11.1905241,5.3725 C11.1905241,5.133 11.3131765,4.98 11.5227914,4.98 C11.6102567,4.977 11.7133048,4.9755 11.8007701,4.9755 C15.5632834,4.9755 18.6140107,8.006 18.6140107,11.747 C18.6140107,15.4865 15.5637861,18.5175 11.8007701,18.5175 C11.7122995,18.5175 11.6102567,18.5145 11.5227914,18.5115 C11.3131765,18.5115 11.1905241,18.356 11.1905241,18.12 C11.1905241,17.8805 11.3131765,17.7285 11.5227914,17.7285 L11.5227914,17.7285 Z M11.8007701,19.498 C16.1086845,19.498 19.5992513,16.0275 19.5992513,11.747 C19.5992513,7.4635 16.1086845,3.9925 11.8007701,3.9925 C11.6916898,3.9925 11.5574759,3.9955 11.4468877,3.999 C11.2870374,3.999 11.1905241,3.8825 11.1905241,3.697 C11.1905241,3.5105 11.2865348,3.3945 11.4468877,3.3945 C11.5660214,3.3905 11.6826417,3.3885 11.8007701,3.3885 C16.4459786,3.3885 20.2105027,7.1285 20.2105027,11.7475 C20.2105027,16.3625 16.4459786,20.105 11.8007701,20.105 C11.6831444,20.105 11.5640107,20.102 11.4468877,20.097 C11.2860321,20.097 11.1905241,19.982 11.1905241,19.7945 C11.1905241,19.609 11.2855294,19.4925 11.4468877,19.4925 C11.5559679,19.495 11.6916898,19.498 11.8007701,19.498 L11.8007701,19.498 Z M8.48010695,18.7625 C8.62537968,18.831 8.648,18.9805 8.57058824,19.1455 C8.49116578,19.3115 8.366,19.379 8.22072727,19.3105 C5.36654545,17.9755 3.39304813,15.086 3.39304813,11.747 C3.39304813,8.405 5.36352941,5.525 8.2106738,4.186 C8.35594652,4.1205 8.49468449,4.1855 8.57209626,4.349 C8.65151872,4.5195 8.6153262,4.6675 8.47005348,4.734 C5.828,5.9735 4.00480214,8.6475 4.0017861,11.747 C4.00027807,14.8425 5.83252406,17.5195 8.48010695,18.7625 L8.48010695,18.7625 Z M8.46754011,16.732 C8.64146524,16.848 8.66006417,17.0435 8.52635294,17.2425 C8.39465241,17.4405 8.20413904,17.5005 8.0302139,17.384 C6.12608556,16.125 4.98954011,14.016 4.98954011,11.7465 C4.98954011,9.476 6.12608556,7.365 8.0302139,6.107 C8.20313369,5.9895 8.39465241,6.0525 8.52735829,6.2505 C8.66006417,6.4485 8.64146524,6.6455 8.46754011,6.759 C6.78458824,7.873 5.77823529,9.737 5.77823529,11.7465 C5.77823529,13.7525 6.78458824,15.619 8.46754011,16.732 L8.46754011,16.732 Z M7.77284492,14.7275 C7.14098396,13.8835 6.77855615,12.8535 6.77855615,11.748 C6.77855615,10.671 7.12339037,9.6345 7.77183957,8.7655 C7.92414973,8.568 8.16493048,8.5605 8.39364706,8.736 C8.62286631,8.906 8.6806738,9.1385 8.53037433,9.3375 C8.00658824,10.0375 7.72961497,10.8705 7.72961497,11.7475 C7.72961497,12.6235 8.00859893,13.4555 8.53238503,14.1555 C8.68167914,14.3535 8.62387166,14.585 8.39465241,14.757 C8.16593583,14.9315 7.92414973,14.9265 7.77284492,14.7275 L7.77284492,14.7275 Z" id="pb_outer_3_" fill="url(#linearGradient-1)"></path>
                        <path d="M10.008738,8.165 C9.5859893,8.283 9.31203209,7.9755 9.31203209,7.644 L9.31203209,2.5365 C9.31203209,2.222 9.54477005,2.04 9.90317647,2.04 C10.2615829,2.04 10.4918075,2.2215 10.4918075,2.5365 L10.4918075,6.8055 C10.9105348,6.697 11.349369,6.637 11.8012727,6.637 C14.6443957,6.637 16.9481497,8.9295 16.9481497,11.756 C16.9481497,14.581 14.6443957,16.8705 11.8012727,16.8705 L11.6911872,16.8665 C11.3775187,16.8665 11.1900214,16.635 11.1900214,16.2765 C11.1900214,15.921 11.3775187,15.6895 11.6911872,15.6895 C11.7263743,15.6895 11.7640749,15.6915 11.8012727,15.6915 C13.9557326,15.6915 15.7558075,13.96 15.7558075,11.747 C15.7558075,9.506 13.9155187,7.7965 11.8309305,7.7965 C10.8240749,7.7965 10.434,8.0445 10.008738,8.165 L10.008738,8.165 Z M14.0200749,9.54 C13.4289305,8.951 12.640738,8.63 11.8027807,8.63 C10.668246,8.63 9.38491979,9.207 9.31655615,9.7405 C9.306,9.8235 9.31253476,10.299 9.31253476,10.299 L9.31253476,19.3955 C9.31253476,19.749 9.54326203,19.916 9.9026738,19.916 C10.2394652,19.916 10.4923102,19.759 10.4923102,19.3955 L10.4923102,10.237 C10.8401604,9.9255 11.2996043,9.7975 11.8017754,9.7975 C12.8825241,9.7975 13.7606952,10.6725 13.7606952,11.7465 C13.7606952,12.819 12.8820214,13.693 11.8017754,13.693 C11.7871979,13.693 11.700738,13.695 11.6866631,13.695 C11.3760107,13.695 11.1905241,13.9225 11.1905241,14.279 C11.1905241,14.6305 11.3760107,14.861 11.6866631,14.861 C11.7082781,14.861 11.7791551,14.866 11.8017754,14.866 C12.640738,14.866 13.4289305,14.541 14.0200749,13.95 C14.6127273,13.36 14.9399679,12.578 14.9399679,11.747 C14.9394652,10.915 14.6122246,10.1295 14.0200749,9.54 L14.0200749,9.54 Z" id="pb_inner_3_" fill="#3E53A4"></path>
                    </g>
                    <path d="M63.590246,14.5555 C63.9843422,14.836 64.6589305,15.0085 65.3596578,15.0085 C66.8214332,15.0085 67.6950802,14.2635 67.6950802,13.0525 C67.6950802,12.1015 67.1903957,11.613 65.8266417,11.161 C64.9178075,10.868 64.5367807,10.587 64.5367807,10.1475 C64.5367807,9.586 65.0173369,9.3045 65.7155508,9.3045 C66.3433904,9.3045 66.9445882,9.4635 67.4859679,9.793 L67.4859679,8.95 C67.1285668,8.6815 66.3795829,8.486 65.7411872,8.486 C64.3894973,8.486 63.5661176,9.109 63.5661176,10.1715 C63.5661176,10.99 64.0456684,11.564 65.1998075,11.942 C66.3051872,12.2965 66.7234118,12.529 66.7234118,13.1265 C66.7234118,13.773 66.2076684,14.1775 65.3596578,14.1775 C64.6825561,14.1775 63.9717754,13.982 63.590246,13.701 L63.590246,14.5555 L63.590246,14.5555 Z M58.0668663,11.161 C58.1779572,10.0245 58.7907166,9.3165 59.8845348,9.3165 C61.0034866,9.3165 61.5674866,9.927 61.6046845,11.161 L58.0668663,11.161 L58.0668663,11.161 Z M62.4275615,13.737 C61.9364492,13.982 61.1497647,14.153 60.3882139,14.153 C58.8646096,14.153 58.0914973,13.4335 58.0296684,11.979 L62.5507166,11.979 C62.5632834,11.808 62.5879144,11.4665 62.5879144,11.3315 C62.5879144,9.5725 61.6906417,8.486 59.9589305,8.486 C58.0176043,8.486 57.0343743,9.903 57.0343743,11.7595 C57.0343743,13.8475 58.1407594,15.0085 60.2655615,15.0085 C61.1135722,15.0085 61.9248877,14.861 62.4275615,14.569 L62.4275615,13.737 L62.4275615,13.737 Z M54.7602781,14.861 L56.5658824,8.6325 L55.5952193,8.6325 L54.2937968,13.53 L52.8435829,8.6325 L51.7618289,8.6325 L50.3246845,13.5905 L49.0348235,8.6325 L47.9787059,8.6325 L49.7833048,14.861 L50.8037326,14.861 L52.3027059,9.9135 L53.7398503,14.861 L54.7602781,14.861 L54.7602781,14.861 Z M44.5751016,14.153 C43.3219358,14.153 42.6212086,13.201 42.6212086,11.7595 C42.6212086,10.2935 43.3224385,9.3405 44.5751016,9.3405 C45.8277647,9.3405 46.5279893,10.2935 46.5279893,11.734 C46.5279893,13.201 45.8157005,14.153 44.5751016,14.153 L44.5751016,14.153 Z M44.5751016,15.0085 C46.5646845,15.0085 47.5604813,13.566 47.5604813,11.747 C47.5604813,9.914 46.7004064,8.4865 44.5751016,8.4865 C42.585016,8.4865 41.5892193,9.927 41.5892193,11.747 C41.5887166,13.579 42.4497968,15.0085 44.5751016,15.0085 L44.5751016,15.0085 Z M36.0135615,9.6715 C36.4559144,9.439 36.9103316,9.3405 37.4994652,9.3405 C38.8511551,9.3405 39.6252727,10.232 39.6252727,11.5515 C39.6252727,13.2255 38.7038717,14.153 37.0948128,14.153 C36.6524599,14.153 36.3453262,14.104 36.0135615,13.982 L36.0135615,9.6715 L36.0135615,9.6715 Z M35.0303316,14.6775 C35.6320321,14.873 36.284,15.0085 37.0083529,15.0085 C39.2809412,15.0085 40.6567594,13.7505 40.6567594,11.5395 C40.6567594,9.6335 39.4774866,8.486 37.5974866,8.486 C37.0450481,8.486 36.5288021,8.5835 36.0130588,8.8045 L36.0130588,5.6895 L35.0298289,5.6895 L35.0298289,14.6775 L35.0303316,14.6775 Z M28.9037433,18.024 L30.0960856,14.861 L32.5893476,8.6325 L31.5085989,8.6325 L29.6049733,13.7255 L27.7365348,8.6325 L26.6190909,8.6325 L29.1128556,14.861 L27.9084492,18.024 L28.9037433,18.024 L28.9037433,18.024 Z M21.5551551,11.161 C21.6652406,10.0245 22.2800107,9.3165 23.3738289,9.3165 C24.4917754,9.3165 25.0572834,9.927 25.0939786,11.161 L21.5551551,11.161 L21.5551551,11.161 Z M25.9168556,13.737 C25.4252406,13.982 24.6390588,14.153 23.877508,14.153 C22.3539037,14.153 21.5797861,13.4335 21.5189626,11.979 L26.0400107,11.979 C26.0515722,11.808 26.0767059,11.4665 26.0767059,11.3315 C26.0767059,9.5725 25.1799358,8.486 23.4477219,8.486 C21.5063957,8.486 20.5236684,9.903 20.5236684,11.7595 C20.5236684,13.8475 21.6295508,15.0085 23.7548556,15.0085 C24.603369,15.0085 25.4136791,14.861 25.9173583,14.569 L25.9173583,13.737 L25.9168556,13.737 Z M19.4665455,14.861 L19.4665455,10.782 C19.4665455,9.024 18.3973583,8.486 17.034107,8.486 C16.1127059,8.486 15.0188877,8.7185 14.2206417,9.0115 L14.2206417,14.861 L15.2038717,14.861 L15.2038717,9.647 C15.6095294,9.488 16.2479251,9.366 16.8008663,9.366 C17.9429412,9.366 18.4833155,9.7565 18.4833155,11.124 L18.4833155,14.8615 L19.4665455,14.8615 L19.4665455,14.861 Z M13.2751123,14.0065 C12.9433476,14.104 12.599016,14.1645 12.1687273,14.1645 C11.7263743,14.1645 11.3946096,14.0425 11.3946096,13.237 L11.3946096,9.451 L13.0408663,9.451 L13.0408663,8.6325 L11.3946096,8.6325 L11.3946096,7.094 L10.4244492,7.094 L10.4244492,8.6325 L9.37989305,8.6325 L9.37989305,9.451 L10.4244492,9.451 L10.4244492,13.4205 C10.4244492,14.5435 11.0135829,15.0085 11.9354866,15.0085 C12.4507273,15.0085 12.8935829,14.9355 13.2751123,14.789 L13.2751123,14.0065 L13.2751123,14.0065 Z M7.82462032,7.4605 C8.18101604,7.4605 8.46351872,7.1795 8.46351872,6.8255 C8.46351872,6.471 8.18101604,6.178 7.82462032,6.178 C7.45616043,6.178 7.17365775,6.471 7.17365775,6.8255 C7.17365775,7.1795 7.45616043,7.4605 7.82462032,7.4605 L7.82462032,7.4605 Z M8.30366845,8.6325 L7.32144385,8.6325 L7.32144385,14.861 L8.30366845,14.861 L8.30366845,8.6325 L8.30366845,8.6325 Z M1.48188235,9.732 C1.8991016,9.4635 2.37865241,9.3405 2.96879144,9.3405 C4.31997861,9.3405 5.09409626,10.232 5.09409626,11.5515 C5.09409626,13.2255 4.17269519,14.153 2.55106952,14.153 C2.10871658,14.153 1.80158289,14.104 1.48238503,13.982 L1.48238503,9.732 L1.48188235,9.732 Z M1.48188235,18.024 L1.48188235,14.8725 C1.80108021,14.9585 2.14541176,15.008 2.50130481,15.008 C4.73770053,15.008 6.12508021,13.75 6.12508021,11.539 C6.12508021,9.6465 4.93374332,8.4855 3.06681283,8.4855 C2.18210695,8.4855 1.26120856,8.754 0.498652406,9.389 L0.498652406,18.024 L1.48188235,18.024 L1.48188235,18.024 Z" id="Wordmark_3_" fill="#4E4E4E"></path>
                </g>
            </g>
        </g>
    </g>
</svg>