<?xml version="1.0" encoding="UTF-8" standalone="no"?>
<svg width="15px" height="15px" viewBox="0 0 15 15" version="1.1" xmlns="http://www.w3.org/2000/svg" xmlns:xlink="http://www.w3.org/1999/xlink" xmlns:sketch="http://www.bohemiancoding.com/sketch/ns">
    <!-- Generator: Sketch 3.3.3 (12072) - http://www.bohemiancoding.com/sketch -->
    <title>magnifier</title>
    <desc>Created with Sketch.</desc>
    <defs></defs>
    <g id="Page-1" stroke="none" stroke-width="1" fill="none" fill-rule="evenodd" sketch:type="MSPage">
        <g id="Search" sketch:type="MSLayerGroup" fill="#FFFFFF">
            <path d="M5.62502859,1.25 C8.03754086,1.25 10.0000508,3.2125 10.0000508,5.625 C10.0000508,8.0375 8.03754086,10 5.62502859,10 C3.21251633,10 1.25000635,8.0375 1.25000635,5.625 C1.25000635,3.2125 3.21251633,1.25 5.62502859,1.25 M5.62502859,11.25 C6.95753537,11.25 8.18066658,10.7825 9.14567149,10.005625 L13.9319458,14.81625 C14.0544464,14.93875 14.2144473,15 14.3750731,15 C14.5344489,15 14.6938247,14.939375 14.8157003,14.818125 C15.0607016,14.574375 15.0613266,14.17875 14.8182003,13.934375 L10.026301,9.118125 C10.7900548,8.1575 11.2500572,6.945 11.2500572,5.625 C11.2500572,2.52375 8.72691936,0 5.62502859,0 C2.52313783,0 0,2.52375 0,5.625 C0,8.726875 2.52313783,11.25 5.62502859,11.25" id="magnifier" sketch:type="MSShapeGroup"></path>
        </g>
    </g>
</svg>