<?xml version="1.0" encoding="UTF-8" standalone="no"?>
<svg width="135px" height="33px" viewBox="0 0 135 33" version="1.1" xmlns="http://www.w3.org/2000/svg" xmlns:xlink="http://www.w3.org/1999/xlink" xmlns:sketch="http://www.bohemiancoding.com/sketch/ns">
    <!-- Generator: Sketch 3.3.3 (12072) - http://www.bohemiancoding.com/sketch -->
    <title>pb-header-logo</title>
    <desc>Created with Sketch.</desc>
    <defs></defs>
    <g id="Page-1" stroke="none" stroke-width="1" fill="none" fill-rule="evenodd" sketch:type="MSPage">
        <g id="pb-header-logo" sketch:type="MSLayerGroup" fill="#FFFFFF">
            <g id="Symbol_3_" transform="translate(101.466029, 0.000000)" sketch:type="MSShapeGroup">
                <path d="M16.893734,0.711652174 C7.94745263,0.711652174 0.691552153,7.94008696 0.691552153,16.8551087 C0.691552153,25.7665435 7.94745263,32.9935435 16.893734,32.9935435 C25.844333,32.9935435 33.097355,25.7665435 33.097355,16.8551087 C33.0966354,7.94008696 25.844333,0.711652174 16.893734,0.711652174 L16.893734,0.711652174 Z M16.893734,32.6212174 C8.15398278,32.6212174 1.06719234,25.5606522 1.06719234,16.8529565 C1.06719234,8.1431087 8.15398278,1.08469565 16.893734,1.08469565 C25.6349244,1.08469565 32.7231541,8.1431087 32.7231541,16.8529565 C32.7231541,25.5606522 25.6349244,32.6212174 16.893734,32.6212174 L16.893734,32.6212174 Z M16.0201187,3.06541304 C16.0201187,2.89682609 16.1086316,2.7971087 16.2489569,2.7971087 C16.4713187,2.78778261 16.6706526,2.78276087 16.8930144,2.78276087 C24.6929455,2.78276087 31.0176612,9.07715217 31.0176612,16.8522391 C31.0176612,24.6230217 24.6929455,30.9224348 16.8930144,30.9224348 C9.09596172,30.9224348 2.77124593,24.6230217 2.77124593,16.8522391 C2.77124593,10.7895652 6.6132823,5.63080435 12.0032153,3.64793478 C12.1341856,3.597 12.2536421,3.66586957 12.3068938,3.81723913 C12.3644632,3.96717391 12.3212861,4.09702174 12.1859981,4.14795652 C7.00331483,6.05621739 3.30736077,11.0227174 3.30736077,16.8515217 C3.30736077,24.3281739 9.39028517,30.3879783 16.8930144,30.3879783 C24.3979024,30.3879783 30.4808268,24.3281739 30.4808268,16.8515217 C30.4808268,9.36913043 24.3979024,3.31076087 16.8930144,3.31076087 C16.6778488,3.31076087 16.4598048,3.31578261 16.2446392,3.3243913 C16.1028746,3.3251087 16.0201187,3.22467391 16.0201187,3.06541304 L16.0201187,3.06541304 Z M16.4957856,25.4365435 C16.6080459,25.4408478 16.7807541,25.4422826 16.893734,25.4422826 C21.6561608,25.4422826 25.5147483,21.5977826 25.5147483,16.8543913 C25.5147483,12.1102826 21.6554411,8.26506522 16.893734,8.26506522 C16.7829129,8.26506522 16.6073263,8.2665 16.4957856,8.27080435 C16.1957053,8.27080435 16.0201187,8.04984783 16.0201187,7.70836957 C16.0201187,7.36473913 16.1957053,7.14521739 16.4957856,7.14521739 C16.620999,7.14091304 16.7685206,7.13876087 16.893734,7.13876087 C22.2800689,7.13876087 26.6474258,11.4868696 26.6474258,16.8543913 C26.6474258,22.2197609 22.2807885,26.568587 16.893734,26.568587 C16.7670813,26.568587 16.620999,26.5642826 16.4957856,26.5599783 C16.1957053,26.5599783 16.0201187,26.3368696 16.0201187,25.9982609 C16.0201187,25.6546304 16.1957053,25.4365435 16.4957856,25.4365435 L16.4957856,25.4365435 Z M16.893734,27.9753913 C23.0608536,27.9753913 28.0578756,22.9959783 28.0578756,16.8543913 C28.0578756,10.7085 23.0608536,5.72836957 16.893734,5.72836957 C16.737577,5.72836957 16.5454392,5.73267391 16.3871234,5.73769565 C16.1582852,5.73769565 16.0201187,5.57054348 16.0201187,5.3043913 C16.0201187,5.03680435 16.1575656,4.87036957 16.3871234,4.87036957 C16.5576727,4.86463043 16.7246239,4.86176087 16.893734,4.86176087 C23.5437167,4.86176087 28.9329301,10.2278478 28.9329301,16.8551087 C28.9329301,23.4766304 23.5437167,28.8463043 16.893734,28.8463043 C16.7253435,28.8463043 16.5547943,28.842 16.3871234,28.8348261 C16.1568459,28.8348261 16.0201187,28.6698261 16.0201187,28.4008043 C16.0201187,28.1346522 16.1561263,27.9675 16.3871234,27.9675 C16.5432804,27.971087 16.737577,27.9753913 16.893734,27.9753913 L16.893734,27.9753913 Z M12.1399426,26.9201087 C12.347912,27.0183913 12.3802947,27.2328913 12.2694737,27.4696304 C12.1557742,27.7078043 11.9765895,27.8046522 11.7686201,27.7063696 C7.68263349,25.7909348 4.85741627,21.6451304 4.85741627,16.8543913 C4.85741627,12.0593478 7.67831579,7.92717391 11.7542278,6.006 C11.9621971,5.91202174 12.1608115,6.00528261 12.2716325,6.23986957 C12.3853321,6.4845 12.3335196,6.69684783 12.1255502,6.79226087 C8.34324211,8.57067391 5.73319043,12.4072826 5.72887273,16.8543913 C5.72671388,21.2957609 8.34971866,25.1366739 12.1399426,26.9201087 L12.1399426,26.9201087 Z M12.1219522,24.0067826 C12.3709397,24.1732174 12.3975656,24.4537174 12.2061474,24.7392391 C12.0176077,25.0233261 11.7448727,25.109413 11.4958852,24.9422609 C8.76997512,23.1358696 7.14292057,20.109913 7.14292057,16.8536739 C7.14292057,13.596 8.76997512,10.5671739 11.4958852,8.76221739 C11.7434335,8.59363043 12.0176077,8.68402174 12.2075866,8.9681087 C12.3975656,9.25219565 12.3709397,9.53484783 12.1219522,9.69769565 C9.71267368,11.2960435 8.272,13.9704783 8.272,16.8536739 C8.272,19.7318478 9.71267368,22.4098696 12.1219522,24.0067826 L12.1219522,24.0067826 Z M11.1274411,21.1307609 C10.2228823,19.9198043 9.70403828,18.4419783 9.70403828,16.8558261 C9.70403828,15.3105652 10.1976957,13.823413 11.1260019,12.576587 C11.3440459,12.2932174 11.6887426,12.2824565 12.0161684,12.5342609 C12.3443139,12.7781739 12.4270699,13.1117609 12.2119043,13.3972826 C11.4620632,14.4016304 11.0655541,15.5968043 11.0655541,16.8551087 C11.0655541,18.1119783 11.4649416,19.3057174 12.2147828,20.3100652 C12.4285091,20.5941522 12.3457531,20.9263043 12.0176077,21.173087 C11.6901818,21.4234565 11.3440459,21.4162826 11.1274411,21.1307609 L11.1274411,21.1307609 Z" id="pb_outer_3_"></path>
                <path d="M14.3282986,11.715 C13.7231005,11.8843043 13.3309091,11.4431087 13.3309091,10.9674783 L13.3309091,3.63932609 C13.3309091,3.18808696 13.6640919,2.92695652 14.1771789,2.92695652 C14.690266,2.92695652 15.0198507,3.18736957 15.0198507,3.63932609 L15.0198507,9.76441304 C15.6192919,9.60873913 16.2475177,9.52265217 16.8944536,9.52265217 C20.9646086,9.52265217 24.2626144,12.8118913 24.2626144,16.8673043 C24.2626144,20.9205652 20.9646086,24.2055 16.8944536,24.2055 L16.7368574,24.1997609 C16.2878163,24.1997609 16.019399,23.8676087 16.019399,23.3532391 C16.019399,22.8431739 16.2878163,22.5110217 16.7368574,22.5110217 C16.7872306,22.5110217 16.8412019,22.5138913 16.8944536,22.5138913 C19.978733,22.5138913 22.5556823,20.0295652 22.5556823,16.8543913 C22.5556823,13.6390435 19.9211636,11.1862826 16.936911,11.1862826 C15.4955177,11.1862826 14.9370947,11.5421087 14.3282986,11.715 L14.3282986,11.715 Z M20.070844,13.6878261 C19.2245742,12.8427391 18.0962144,12.3821739 16.8966124,12.3821739 C15.2724364,12.3821739 13.4352536,13.2100435 13.3373856,13.9755 C13.3222737,14.094587 13.3316287,14.7768261 13.3316287,14.7768261 L13.3316287,27.8283261 C13.3316287,28.3355217 13.661933,28.5751304 14.1764593,28.5751304 C14.6586029,28.5751304 15.0205703,28.3498696 15.0205703,27.8283261 L15.0205703,14.6878696 C15.5185455,14.2409348 16.1762756,14.0572826 16.8951732,14.0572826 C18.4423502,14.0572826 19.6995215,15.3127174 19.6995215,16.8536739 C19.6995215,18.3924783 18.4416306,19.6464783 16.8951732,19.6464783 C16.8743043,19.6464783 16.7505301,19.6493478 16.7303809,19.6493478 C16.2856574,19.6493478 16.0201187,19.9757609 16.0201187,20.4872609 C16.0201187,20.991587 16.2856574,21.3223043 16.7303809,21.3223043 C16.7613244,21.3223043 16.8627904,21.3294783 16.8951732,21.3294783 C18.0962144,21.3294783 19.2245742,20.8631739 20.070844,20.0152174 C20.9192727,19.1686957 21.3877435,18.0466957 21.3877435,16.8543913 C21.3870239,15.6606522 20.9185531,14.5336304 20.070844,13.6878261 L20.070844,13.6878261 Z" id="pb_inner_3_"></path>
            </g>
            <path d="M91.0344574,20.8839783 C91.5986373,21.2864348 92.5643636,21.5339348 93.56751,21.5339348 C95.6601569,21.5339348 96.9108517,20.4650217 96.9108517,18.7275 C96.9108517,17.3630217 96.188356,16.6621304 94.2360344,16.0136087 C92.9349665,15.5932174 92.3894967,15.1900435 92.3894967,14.5594565 C92.3894967,13.7538261 93.0774507,13.3499348 94.076999,13.3499348 C94.975801,13.3499348 95.8364632,13.5780652 96.6114909,14.0508261 L96.6114909,12.8413043 C96.0998431,12.4560652 95.0276134,12.1755652 94.1136995,12.1755652 C92.1786488,12.1755652 90.9999158,13.0694348 90.9999158,14.5938913 C90.9999158,15.7682609 91.6864306,16.5918261 93.3386718,17.1341739 C94.92111,17.6428043 95.5198316,17.9763913 95.5198316,18.8336739 C95.5198316,19.7612609 94.7815043,20.3416304 93.56751,20.3416304 C92.5981856,20.3416304 91.5806469,20.0611304 91.0344574,19.6579565 L91.0344574,20.8839783 L91.0344574,20.8839783 Z M83.1273033,16.0136087 C83.2863388,14.3829783 84.1635522,13.3671522 85.7294392,13.3671522 C87.3313072,13.3671522 88.1387177,14.243087 88.1919694,16.0136087 L83.1273033,16.0136087 L83.1273033,16.0136087 Z M89.3699828,19.7096087 C88.6669167,20.0611304 87.5407158,20.3064783 86.4504957,20.3064783 C84.2693359,20.3064783 83.1625646,19.2741522 83.0740517,17.1872609 L89.546289,17.1872609 C89.5642794,16.941913 89.5995407,16.4519348 89.5995407,16.2582391 C89.5995407,13.7344565 88.3150239,12.1755652 85.8359426,12.1755652 C83.0567809,12.1755652 81.6492096,14.2086522 81.6492096,16.8723261 C81.6492096,19.8681522 83.2330871,21.5339348 86.2749091,21.5339348 C87.4889033,21.5339348 88.6503656,21.3223043 89.3699828,20.9033478 L89.3699828,19.7096087 L89.3699828,19.7096087 Z M78.3936612,21.3223043 L80.9785263,12.3857609 L79.5889455,12.3857609 L77.7258565,19.4126087 L75.6497608,12.3857609 L74.1011445,12.3857609 L72.0437589,19.499413 L70.1972211,12.3857609 L68.6853053,12.3857609 L71.2687311,21.3223043 L72.7295541,21.3223043 L74.8754526,14.2237174 L76.9328383,21.3223043 L78.3936612,21.3223043 L78.3936612,21.3223043 Z M63.812777,20.3064783 C62.0187713,20.3064783 61.0156249,18.9405652 61.0156249,16.8723261 C61.0156249,14.7689348 62.0194909,13.401587 63.812777,13.401587 C65.6060632,13.401587 66.60849,14.7689348 66.60849,16.8357391 C66.60849,18.9405652 65.5887923,20.3064783 63.812777,20.3064783 L63.812777,20.3064783 Z M63.812777,21.5339348 C66.661022,21.5339348 68.0865837,19.4642609 68.0865837,16.8543913 C68.0865837,14.2244348 66.8553187,12.1762826 63.812777,12.1762826 C60.9638124,12.1762826 59.5382507,14.243087 59.5382507,16.8543913 C59.5375311,19.482913 60.7702354,21.5339348 63.812777,21.5339348 L63.812777,21.5339348 Z M51.5562565,13.8765 C52.1895196,13.542913 52.8400536,13.401587 53.683445,13.401587 C55.6184957,13.401587 56.7267062,14.6806957 56.7267062,16.5738913 C56.7267062,18.9757174 55.4076478,20.3064783 53.1041531,20.3064783 C52.47089,20.3064783 52.0312038,20.2361739 51.5562565,20.0611304 L51.5562565,13.8765 L51.5562565,13.8765 Z M50.1486852,21.0590217 C51.010067,21.3395217 51.9434105,21.5339348 52.9803789,21.5339348 C56.2337684,21.5339348 58.2033608,19.7289783 58.2033608,16.5566739 C58.2033608,13.8219783 56.5151388,12.1755652 53.8237703,12.1755652 C53.032911,12.1755652 52.2938641,12.3154565 51.5555368,12.6325435 L51.5555368,8.16319565 L50.1479656,8.16319565 L50.1479656,21.0590217 L50.1486852,21.0590217 Z M41.3779904,25.8605217 L43.0849225,21.3223043 L46.6542239,12.3857609 L45.1070469,12.3857609 L42.3818565,19.6931087 L39.7070392,12.3857609 L38.1073301,12.3857609 L41.6773512,21.3223043 L39.9531483,25.8605217 L41.3779904,25.8605217 L41.3779904,25.8605217 Z M30.8579062,16.0136087 C31.0155024,14.3829783 31.8955943,13.3671522 33.4614813,13.3671522 C35.06191,13.3671522 35.8714794,14.243087 35.9240115,16.0136087 L30.8579062,16.0136087 L30.8579062,16.0136087 Z M37.1020249,19.7096087 C36.3982392,20.0611304 35.2727579,20.3064783 34.1825378,20.3064783 C32.001378,20.3064783 30.8931675,19.2741522 30.8060938,17.1872609 L37.2783311,17.1872609 C37.2948823,16.941913 37.3308632,16.4519348 37.3308632,16.2582391 C37.3308632,13.7344565 36.047066,12.1755652 33.5672651,12.1755652 C30.7881033,12.1755652 29.3812517,14.2086522 29.3812517,16.8723261 C29.3812517,19.8681522 30.9644096,21.5339348 34.0069512,21.5339348 C35.2216651,21.5339348 36.381688,21.3223043 37.1027445,20.9033478 L37.1027445,19.7096087 L37.1020249,19.7096087 Z M27.8678967,21.3223043 L27.8678967,15.4698261 C27.8678967,12.9474783 26.3372708,12.1755652 24.3856689,12.1755652 C23.0666105,12.1755652 21.5007234,12.5091522 20.3579713,12.9295435 L20.3579713,21.3223043 L21.7655426,21.3223043 L21.7655426,13.8413478 C22.3462737,13.6132174 23.2601876,13.4381739 24.0517665,13.4381739 C25.6867368,13.4381739 26.4603254,13.9984565 26.4603254,15.9605217 L26.4603254,21.3230217 L27.8678967,21.3230217 L27.8678967,21.3223043 Z M19.0043713,20.0962826 C18.5294239,20.2361739 18.0364861,20.3229783 17.4204938,20.3229783 C16.7872306,20.3229783 16.3122833,20.1479348 16.3122833,18.9922174 L16.3122833,13.5601304 L18.6690297,13.5601304 L18.6690297,12.3857609 L16.3122833,12.3857609 L16.3122833,10.1783478 L14.923422,10.1783478 L14.923422,12.3857609 L13.4280574,12.3857609 L13.4280574,13.5601304 L14.923422,13.5601304 L14.923422,19.2555 C14.923422,20.8667609 15.7668134,21.5339348 17.0865914,21.5339348 C17.824199,21.5339348 18.4581818,21.4291957 19.0043713,21.219 L19.0043713,20.0962826 L19.0043713,20.0962826 Z M11.2015617,10.7041957 C11.7117703,10.7041957 12.1161952,10.3010217 12.1161952,9.7931087 C12.1161952,9.28447826 11.7117703,8.86408696 11.2015617,8.86408696 C10.6740823,8.86408696 10.2696574,9.28447826 10.2696574,9.7931087 C10.2696574,10.3010217 10.6740823,10.7041957 11.2015617,10.7041957 L11.2015617,10.7041957 Z M11.8873569,12.3857609 L10.4812249,12.3857609 L10.4812249,21.3223043 L11.8873569,21.3223043 L11.8873569,12.3857609 L11.8873569,12.3857609 Z M2.12143158,13.9633043 C2.71871388,13.5780652 3.40522871,13.401587 4.25005933,13.401587 C6.18439043,13.401587 7.29260096,14.6806957 7.29260096,16.5738913 C7.29260096,18.9757174 5.97354258,20.3064783 3.65205742,20.3064783 C3.01879426,20.3064783 2.57910813,20.2361739 2.1221512,20.0611304 L2.1221512,13.9633043 L2.12143158,13.9633043 Z M2.12143158,25.8605217 L2.12143158,21.3388043 C2.57838852,21.4621957 3.07132632,21.5332174 3.58081531,21.5332174 C6.78239234,21.5332174 8.76853589,19.7282609 8.76853589,16.5559565 C8.76853589,13.8406304 7.06304306,12.1748478 4.39038469,12.1748478 C3.12385837,12.1748478 1.80551962,12.560087 0.713860287,13.4711739 L0.713860287,25.8605217 L2.12143158,25.8605217 L2.12143158,25.8605217 Z" id="Wordmark_3_" sketch:type="MSShapeGroup"></path>
        </g>
    </g>
</svg>