<?xml version="1.0" encoding="UTF-8" standalone="no"?>
<svg width="26px" height="26px" viewBox="0 0 26 26" version="1.1" xmlns="http://www.w3.org/2000/svg" xmlns:xlink="http://www.w3.org/1999/xlink" xmlns:sketch="http://www.bohemiancoding.com/sketch/ns">
    <!-- Generator: Sketch 3.3.3 (12072) - http://www.bohemiancoding.com/sketch -->
    <title>social-youtube</title>
    <desc>Created with Sketch.</desc>
    <defs></defs>
    <g id="Footers" stroke="none" stroke-width="1" fill="none" fill-rule="evenodd" sketch:type="MSPage">
        <g id="Style-Guide-Footers" sketch:type="MSArtboardGroup" transform="translate(-1118.000000, -1312.000000)">
            <g id="Item-Limits" sketch:type="MSLayerGroup" transform="translate(134.000000, 874.000000)">
                <g id="3" transform="translate(1.000000, 395.000000)" sketch:type="MSShapeGroup">
                    <g id="social-icons" transform="translate(916.000000, 44.000000)">
                        <g id="social-youtube" transform="translate(68.000000, 0.000000)">
                            <circle id="Oval-3" stroke="#3E53A4" stroke-width="2" cx="12" cy="12" r="12"></circle>
                            <g id="Fill-7268-+-Fill-7269" transform="translate(5.000000, 7.000000)">
                                <path d="M9.3539454,4.79754647 L5.89828338,6.35892773 C5.86210435,6.37111695 5.82309885,6.38214529 5.78465863,6.38214529 C5.7303901,6.38214529 5.67725216,6.36531256 5.63033249,6.33571016 C5.55062558,6.28405108 5.50201001,6.19060038 5.50201001,6.09250617 L5.50201001,2.9749676 C5.50201001,2.87629295 5.55062558,2.78342269 5.63033249,2.73176361 C5.71060469,2.67952409 5.8112276,2.67313926 5.89828338,2.7079656 L9.3539454,4.2699273 C9.4568295,4.31578199 9.52296928,4.42084148 9.52296928,4.53054447 C9.52296928,4.6466323 9.4568295,4.75111134 9.3539454,4.79754647 L9.3539454,4.79754647 Z M13.5405368,2.15074404 C13.4404791,1.16399752 12.5263935,0.276506091 11.5433416,0.217881739 C7.84177529,-0.014293913 6.55402818,-0.014293913 2.85189656,0.217881739 C1.86940995,0.276506091 0.955324319,1.16399752 0.855832005,2.15074404 C0.646106729,4.25193369 0.646106729,5.3379353 0.855266708,7.43332056 C0.955324319,8.41948664 1.86940995,9.30755851 2.85189656,9.37140681 C4.70381031,9.48807508 5.96216197,9.53451021 7.19790173,9.53451021 C8.4336415,9.53451021 9.69312374,9.48807508 11.5433416,9.37140681 C12.5275241,9.30755851 13.4427403,8.41948664 13.5422326,7.43332056 C13.7508273,5.3379353 13.7508273,4.25193369 13.5405368,2.15074404 L13.5405368,2.15074404 Z" id="Fill-7269" fill="#3E53A4"></path>
                                <path d="M5.47947826,6.075 L8.13886957,4.875 L5.47947826,3.68125 L5.47947826,6.075" id="Fill-7268"></path>
                            </g>
                        </g>
                    </g>
                </g>
            </g>
        </g>
    </g>
</svg>