<svg width="26" height="26" viewBox="0 0 26 26" xmlns="http://www.w3.org/2000/svg" xmlns:sketch="http://www.bohemiancoding.com/sketch/ns"><title>social-twitter</title><desc>Created with Sketch.</desc><g transform="translate(1 1)" sketch:type="MSShapeGroup" fill="none"><circle stroke="#3E53A4" stroke-width="2" cx="12" cy="12" r="12"/><path d="M17.701 9.077c-.071-.079-.186-.098-.28-.051l-.299.108c.165-.22.298-.463.357-.683.024-.093-.012-.197-.093-.253-.08-.056-.188-.056-.268 0-.126.089-.739.356-1.126.44-.87-.763-1.901-.843-2.951-.23-.86.505-1.047 1.525-1.01 2.148-1.968-.191-3.192-1.231-3.881-2.092-.049-.056-.128-.089-.199-.084-.077.005-.145.047-.184.113-.327.552-.416 1.16-.261 1.759.085.328.234.618.407.852l-.238-.154c-.07-.057-.166-.07-.248-.029-.081.037-.133.117-.133.211 0 1.072.674 1.732 1.265 2.078-.105-.009-.212-.033-.319-.066-.088-.028-.183-.005-.244.066-.061.07-.075.164-.037.248.338.749.979 1.259 1.773 1.442-.686.407-1.599.598-2.469.496-.111-.014-.215.028-.249.136-.035.102.011.168.108.219 1.153.651 2.319.87 3.465.87h.001c1.717 0 3.325-.631 4.525-1.979 1.126-1.259 1.718-2.761 1.598-4.221.297-.219.742-.627 1.017-1.062.056-.089.046-.206-.025-.281" fill="#3E53A4"/></g></svg>