<svg width="26" height="26" viewBox="0 0 26 26" xmlns="http://www.w3.org/2000/svg" xmlns:sketch="http://www.bohemiancoding.com/sketch/ns"><title>social-linked</title><desc>Created with Sketch.</desc><g transform="translate(1 1)" sketch:type="MSShapeGroup" fill="none"><circle stroke="#3E53A4" stroke-width="2" cx="12" cy="12" r="12"/><path d="M16.483 17.587h-9.379c-.61 0-1.104-.494-1.104-1.104v-9.379c0-.61.494-1.104 1.104-1.104h9.379c.61 0 1.104.494 1.104 1.104v9.379c0 .61-.494 1.104-1.104 1.104zm-7.628-9.108c-.475 0-.786.355-.786.821 0 .456.301.821.768.821h.009c.485 0 .787-.365.787-.821-.009-.466-.302-.821-.778-.821zm-.704 7.041h1.57v-4.886h-1.57v4.886zm7.776-2.705c0-1.45-.75-2.258-1.819-2.258-.864 0-1.249.46-1.464.78v-.669h-1.677c.021.442 0 4.851 0 4.851h1.677v-2.635c0-.141.01-.282.053-.383.118-.282.385-.574.834-.574.588 0 .771.433.771 1.067v2.524h1.625v-2.705zm-3.295-1.463l.011-.014v.014h-.011z" fill="#3E53A4"/></g></svg>