<svg width="26" height="26" viewBox="0 0 26 26" xmlns="http://www.w3.org/2000/svg" xmlns:sketch="http://www.bohemiancoding.com/sketch/ns"><title>social-fb</title><desc>Created with Sketch.</desc><g transform="translate(1 1)" sketch:type="MSShapeGroup" fill="none"><circle stroke="#3E53A4" stroke-width="2" cx="12" cy="12" r="12"/><path d="M13.763 7.154h.968c.149 0 .269-.118.269-.269v-1.615c0-.145-.12-.269-.269-.269h-1.586c-1.593 0-2.991 1.271-2.991 2.72v2.126h-1.885c-.148 0-.269.124-.269.269v2.154c0 .151.121.269.269.269h1.885v5.115c0 .151.121.269.269.269h1.615c.149 0 .269-.118.269-.269v-5.115h1.765c.12 0 .225-.081.259-.194l.618-2.154c.024-.08.008-.167-.043-.237-.052-.064-.13-.108-.215-.108h-2.383v-1.664c0-.485.867-1.028 1.455-1.028" fill="#3E53A4"/></g></svg>