<svg version="1.1" xmlns="http://www.w3.org/2000/svg" xmlns:xlink="http://www.w3.org/1999/xlink" width="301" height="150"
preserveAspectRatio="xMaxYMax meet"  viewBox="0 0 375.847 185.784" >
<g id="timeline">
<g id="gulp">
<rect x="233.422" y="0" style="fill:#0072B8;" width="12.329" height="190.411"></rect>
<polygon style="fill:#3E54A4;" points="234.061,87.743 226.77,93.143 234.601,98.184"/>
<g id="gulp-badge">
<circle style="fill:#3E54A4;" cx="93.892" cy="92.892" r="92.892"/>
<g id="gulp-details">
<text transform="matrix(1 0 0 1 63.3093 121.1215)" style="fill:#FFFFFF; font-family: 'PrecisionSans_W_Bd'; font-size:12.9617px;">Automated</text>

<text transform="matrix(1 0 0 1 39.6481 136.6752)" style="fill:#FFFFFF; font-family: 'PrecisionSans_W_Bd'; font-size:12.9617px;">development tasks</text>

<text transform="matrix(1 0 0 1 63.3864 152.2299)" style="fill:#FFFFFF; font-family: 'PrecisionSans_W_Bd'; font-size:12.9617px;">and builds.</text>


</g>
<g id="gulp-title">
<path style="fill:#FFFFFF;" d="M82.274,62.495l1.024,9.866c0,0,0.392,1.034,1.322,2.317l1.292,2.146l0.673,9.953
c0,1.067,3.519,1.932,7.861,1.932c4.341,0,7.86-0.865,7.86-1.932l0.615-10.246l1.698-2.898c0,0-0.017,0.006-0.034,0.014
c0.446-0.744,0.648-1.252,0.648-1.252l1.271-11.427l0.185-1.666l1.936-17.406c0,0,0.274-0.873,0.274-1.113
c0-0.825-3.504-1.535-8.533-1.852l1.29-5.101l7.133-7.506l0,0l0,0l0.014-0.015l-0.004-0.004
c0.153-0.218-0.115-0.731-0.619-1.167c-0.516-0.447-1.081-0.641-1.261-0.433l-7.567,8.011l-1.499,6.095
c-1.086-0.037-2.219-0.056-3.384-0.056c-7.969,0-14.429,0.908-14.429,2.029c0,0.221,0.101,1.146,0.101,1.146l1.648,15.887
L82.274,62.495z"/>
<g>
  <path style="fill:#D24B48;" d="M102.304,86.778l0.615-10.246l1.698-2.898c0,0-3.864,1.581-10.333,1.581
    s-10.275-1.552-10.275-1.552l1.902,3.162l0.673,9.953c0,1.067,3.519,1.932,7.861,1.932
    C98.785,88.71,102.304,87.846,102.304,86.778"/>
    <path style="fill:#D24B48;" d="M100.365,38.932l1.29-5.101l7.147-7.521l-1.884-1.604l-7.567,8.011l-1.499,6.095
      c-1.086-0.037-2.219-0.056-3.384-0.056c-7.969,0-14.429,0.908-14.429,2.029s6.461,2.029,14.429,2.029
      c7.969,0,14.429-0.908,14.429-2.029C108.898,39.959,105.395,39.249,100.365,38.932"/>
      <path style="fill:#FFFFFF;" d="M99.614,41.788c0,0-0.279,0.063-1.102,0.066c-0.822,0.004-1.406-0.005-1.639-0.217
        c-0.063-0.057-0.096-0.17-0.096-0.246c0.001-0.145,0.104-0.231,0.235-0.285l0.125,0.195c-0.054,0.019-0.085,0.041-0.085,0.064
        c-0.001,0.111,0.841,0.187,1.485,0.178c0.644-0.008,1.421-0.061,1.422-0.17c0-0.033-0.059-0.064-0.161-0.089l0.124-0.194
        c0.167,0.052,0.313,0.152,0.312,0.325C100.232,41.711,99.857,41.755,99.614,41.788"/>
        <path style="fill:#D24B48;" d="M108.789,26.324c0.18-0.207-0.093-0.739-0.609-1.186c-0.516-0.447-1.081-0.641-1.261-0.433
          s0.093,0.739,0.609,1.185C108.044,26.337,108.609,26.532,108.789,26.324"/>
          <path style="fill:#D24B48;" d="M101.961,61.752c-0.169-1.63,3.564-3.99,2.607-4.066c-2.063,0.118-3.09,2.417-4.128,4.826
            c-0.38,0.883-1.682,4.647-2.535,4.184c-0.853-0.463,1.106-3.559,1.655-5.396c-0.634,0.464-2.958,2.27-3.557,0.58
            c-0.963,0.818-3.021,1.261-2.789-0.887c-0.513,0.907-1.662,2.175-3.042,1.648c-1.812-0.691,1.051-6.465,1.762-6.174
            c0.712,0.291-0.144,1.607-0.368,2.117c-0.493,1.124-1.062,2.537-0.682,2.826c0.652,0.495,2.425-1.875,2.464-1.927
            c0.332-0.438,1.277-3.305,2.038-2.975c0.761,0.329-1.9,4.114-0.904,4.865c0.201,0.152,1.022-0.094,1.521-0.634
            c0.323-0.349,0.212-1.124,1.289-3.693c1.077-2.569,2.037-5.768,2.776-5.524c0.739,0.243,0.13,1.885-0.135,2.497
            c-1.244,2.872-3.394,7.619-2.38,7.259c1.014-0.359,1.542-0.38,2.535-1.542c0.993-1.162,0.948-3.076,1.609-3.036
            c0.662,0.041,0.551,0.655,0.39,1.122c0.652-0.745,3.088-2.316,3.676-0.76c0.697,1.841-3.486,4.501-2.443,4.364
            c1.017-0.132,2.664-1.176,3.368-2.124l1.936-17.406c0,0-1.949,1.612-14.343,1.612c-12.395,0-14.141-1.578-14.141-1.578
            l1.648,15.887c0.875-2.486,2.952-7.516,6.227-7.348c1.49,0.077,3.478,2.945,1.775,3.042c-0.721,0.041-0.794-1.432-1.648-1.648
            c-0.616-0.156-1.474,0.345-2.029,0.887c-1.105,1.082-3.484,5.351-3.169,7.48c0.4,2.713,3.744-0.943,4.31-2.029
            c0.398-0.765,0.668-3.03,1.54-2.793c0.871,0.238-0.076,2.576-0.708,4.643c-0.71,2.321-1.083,4.77-1.972,4.488
            c-0.889-0.282,0.56-3.278,0.507-3.803c-0.836,0.771-2.376,2.725-4.347,1.758l1.024,9.866c0,0,2.721,2.149,10.917,2.149
            s11.017-2.116,11.017-2.116l1.271-11.427C105.462,61.981,102.172,63.779,101.961,61.752"/>
          </g>
        </g>
      </g>

      <text transform="matrix(1 0 0 1 276.3718 99.4857)" style="fill:#3E54A4; font-size:21.6028px;">Gulp</text>
    </g>
  </g>
</svg>
