<svg version="1.1" id="Layer_1" xmlns="http://www.w3.org/2000/svg" xmlns:xlink="http://www.w3.org/1999/xlink" width="386" height="150"
preserveAspectRatio="xMaxYMax meet"  viewBox="0 0 375.847 185.784" >
<g id="timeline">
<g id="bower">
<rect x="128.643" y="0" style="fill:#CD1388;" width="12.329" height="190.411"/>
<polygon style="fill:#CD1388;" points="139.893,97.321 147.184,91.921 139.353,86.88"/>

<g id="bower-badge">
<circle style="fill:#CD1388;" cx="281.955" cy="92.892" r="92.892"/>
<g id="bower-details">
<text transform="matrix(1 0 0 1 238.8128 121.1215)" style="fill:#FFFFFF; font-family: 'PrecisionSans_W_Bd'; font-size:12.9617px;">Packaging and
</text>

<text transform="matrix(1 0 0 1 225.1516 136.6752)" style="fill:#FFFFFF; font-family: 'PrecisionSans_W_Bd'; font-size:12.9617px;">management of web</text>

<text transform="matrix(1 0 0 1 238.8899 152.2299)" style="fill:#FFFFFF; font-family: 'PrecisionSans_W_Bd'; font-size:12.9617px;">components.</text>

</g>
<g id="bower-title">
<path style="fill:#55382A;" d="M309.862,58.193c-1.1-0.565-5.446-1.825-5.461-1.83c-1.522-0.531-16.415-2.533-16.415-2.533
l0.671-1.83l2.044-0.732c0.106-0.001,0.885,1.769,0.885,1.769s5.217-0.073,7.597-2.349c3.508-3.356,2.684-7.719,4.058-10.922
c0.403-0.94,2.777-3.783,2.777-3.783c-9.763-1.525-14.261,6.958-14.767,7.871c-0.906-0.299-1.768-0.562-2.654-0.671
c-0.174-0.521-1.343-3.456-3.045-5.391c-1.777-2.021-4.985-4.43-10.175-4.43c-2.222,0-4.644,0.45-7.199,1.339
c-3.22,1.12-8.221,4.218-11.723,9.265c-2.03,2.926-3.343,6.175-3.902,9.656c-0.624,3.886-0.3,8.046,0.963,12.377
c2.937,13.516,11.437,16.633,11.437,16.633c4.725,0.796,5.919-2.868,5.919-2.868l1.922,5.064c0,0,2.136,2.441,4.21,0.824
c0,0,3.204,2.166,5.644-0.854c0,0,4.424,1.068,5.339-3.081c0,0,2.166-0.183,1.709-3.752l-3.271-6.167
c0.627,0.544,1.776,0.953,3.111,1.039c1.767,0.114,3.284-0.374,3.721-1.133c0.003,0.002,0.006,0.004,0.009,0.006
c0.152,0.115,2.602,1.273,4.109,1.153c1.936-0.155,3.504-1.044,3.894-2.111c0.898,0.366,2.041,0.466,3.226,0.212
c2.267-0.486,3.868-2.091,3.736-3.672c0.015-0.002,0.031-0.004,0.047-0.005c3.875-0.336,4.424-4.027,4.424-4.027
C312.943,60.542,311.766,59.171,309.862,58.193z"/>
<path style="fill:#F05834;" d="M274.53,60.929c0,0,5.921,0.575,10.037-2.785c-5.609,12.603-17.562,8.226-17.562,8.226
    s-3.127,2.963-10.414,0.13c-0.115-0.298-0.217-0.592-0.306-0.879c-5.547-17.916,7.721-26.911,12.893-28.711
    c13.501-4.696,16.733,5.931,16.733,5.931c-3.816,4.182-2.317,8.835-1.006,11.335C284.142,55.583,281.49,59.384,274.53,60.929z"/>
    <path style="fill:#FFCD31;" d="M299.896,62.012c0.008,0.068,0.004,0.136-0.011,0.205c-0.006,0.03-0.061,0.06-0.072,0.09
        c-0.009,0.029-0.066,0.056-0.066,0.084v0.001c0,0.019-0.012,0.037-0.022,0.056c-0.017,0.029,0.022,0.056-0.061,0.084v0.001
        c0,0.03,0.005,0.059-0.017,0.089c-0.073,0.104-0.143,0.207-0.243,0.308c-0.043,0.042-0.076,0.086-0.122,0.129
        c-0.03,0.029-0.056,0.056-0.087,0.085c-0.094,0.084-0.188,0.166-0.284,0.246c-0.032,0.027-0.063,0.086-0.094,0.112
        c-1.302,1.084-3.161,0.281-3.161,0.281c-0.001,0-0.001,0-0.001,0l0.004-0.027c0.012,0.033,0.024,0.043,0.035,0.071
        c0,0.001,0-0.007,0.001-0.006c0.013,0.03,0.023,0.054,0.034,0.084c0.011,0.031,0.02,0.06,0.03,0.092c0,0.001,0,0.001,0.001,0.003
        c0.009,0.03,0.017,0.06,0.024,0.09c0.007,0.032,0.014,0.063,0.019,0.095c0.033,0.182,0.035,0.364-0.001,0.544
        c-0.124,0.626-0.698,1.242-1.974,1.87c-1.216,0.598-2.432,0.368-3.176,0.109c-0.027-0.009-0.12-0.019-0.145-0.029
        c-0.404-0.148-0.716-0.297-0.716-0.297v0.001c0.083,0.296-0.014,0.734-0.408,1.123c-0.023,0.022-0.013,0.045-0.037,0.068
        c-0.024,0.022-0.034,0.044-0.06,0.066c-0.026,0.022-0.045,0.043-0.073,0.065c-0.029,0.021-0.054,0.042-0.084,0.063
        c-0.031,0.021-0.06,0.041-0.092,0.061c-0.048,0.03-0.098,0.059-0.151,0.088c-0.035,0.019-0.071,0.037-0.108,0.055
        s-0.076,0.035-0.115,0.053c-0.336,0.146-0.748,0.257-1.248,0.311c-1.985,0.214-3.128-0.988-3.16-1.023l1.144,2.522
        c-0.104-0.07-0.16-0.112-0.16-0.112c0.702,1.828-0.428,3.979-1.717,5.953c-2.857,4.37-9.692,3.511-9.692,3.511
        c-9.358-0.851-15.239-7.491-17.235-12.689c7.287,2.834,10.414-0.13,10.414-0.13s11.954,4.377,17.562-8.226
        c0.709-0.579,1.363-1.274,1.924-2.108c4.786,0.38,16.196,2.293,18.059,2.96c0.286,0.102,0.805,0.265,1.098,0.351l-12.478,0.814
        l-3.077-0.246l9.757,1.935c0.003,0.006,0.006,0.013,0.008,0.019c0,0.001,0.001,0.001,0.001,0.001
        c0.004,0.012,0.009,0.024,0.013,0.036C299.884,61.94,299.891,61.976,299.896,62.012z"/>
        <path style="fill:#30AF4A;" d="M299.896,62.012c0.008,0.068,0.004,0.136-0.011,0.205c-0.006,0.03-0.027,0.06-0.037,0.09
            c-0.009,0.029-0.018,0.056-0.03,0.084c0.001,0.001,0,0.001,0,0.001c-0.007,0.019-0.047,0.037-0.058,0.056
            c-0.017,0.029-0.012,0.056-0.096,0.084v0.001c0,0.03,0.005,0.059-0.017,0.089c-0.073,0.104-0.136,0.207-0.237,0.308
            c-0.042,0.043-0.079,0.086-0.125,0.129c-0.03,0.029-0.058,0.056-0.089,0.085c-0.094,0.085-0.189,0.166-0.285,0.246
            c-0.032,0.027-0.063,0.054-0.094,0.08c-1.302,1.084-3.161,0.248-3.161,0.248c0.028,0.063,0.052,0.125,0.073,0.187
            c0.022,0.062,0.04,0.125,0.054,0.187c0.202,0.854-0.25,1.669-1.956,2.509c-1.953,0.961-3.906-0.217-3.906-0.217
            c0.093,0.588-0.496,1.735-2.511,1.953c-1.985,0.214-3.128-0.988-3.16-1.023l1.144,2.522c0.459,0.307,1.864,1.144,3.557,1.144
            c2.075,0,2.896-0.772,2.944-1.255c0,0,6.515,2.269,6.371-1.737c0,0,6.37,1.45,5.067-2.893c0,0,4.076,0.632,5.092-1.519
            l-8.567-1.707C299.878,61.916,299.889,61.963,299.896,62.012z M296.499,60.52c4.064,0.392,9.165,0.944,12.268,1.281
            c-0.266-1.666-1.718-2.085-3.193-2.417h-0.001l-8.26,0.536l-3.993,0.265c1.27,0.104,2.317,0.213,3.175,0.347
            C296.496,60.532,296.497,60.519,296.499,60.52z"/>
            <line style="fill:none;" x1="284.251" y1="67.314" x2="284.25" y2="67.313"/>
            <path style="fill:#CFCFCE;" d="M290.44,48.94c-0.661,0.112-1.308,0.278-2.069,0.575c0,0-1.959,0.609-3.199-0.609
                c0,0,1.567,0.457,2.612,0.174c1.045-0.283,3.004-1.11,4.418-1.001c0,0,1.807-0.066,4.484,0.936c0,0-4.704-4.724-10.122-4.571
                c0,0-2.765,2.808-0.915,7.336c0,0,2.417-1.607,4.877-2.066L290.44,48.94z"/>
                <path style="fill:#2CAAE1;" d="M294.752,41.775c-0.85,0.899-1.445,1.82-1.851,2.72c0.411,0.193,1.043,0.516,1.817,0.996
                    c0.431-1.018,0.989-1.982,1.648-2.847c0.969-1.272,2.217-2.398,3.67-3.163c0.083-0.042,0.129-0.063,0.129-0.063
                    s-0.03,0.04-0.089,0.114c-1.504,1.877-2.91,3.755-4.088,5.859c-0.127,0.228-0.252,0.457-0.376,0.687
                    c0.968,0.668,2.078,1.546,3.22,2.672c0.73-0.833,1.284-1.931,1.468-3.379c0.727-5.725,2.937-8.042,2.937-8.042
                    C298.984,37.919,296.46,39.971,294.752,41.775z M293.759,49.823c0,0-0.003-0.05-0.002-0.144c0.002-0.093,0.002-0.231,0.017-0.405
                    c0.01-0.122,0.022-0.245,0.036-0.367c-0.575-0.101-1.152-0.163-1.682-0.158c0.091,1.568,0.542,2.619,0.542,2.619
                    s2.6-0.038,4.779-1.437c-0.56-0.21-1.889-0.677-3.286-0.958C294.025,49.257,293.891,49.541,293.759,49.823z"/>
                    <circle style="fill:#FFCD31;" cx="275.611" cy="46.886" r="5.301"/>
                    <circle style="fill:#55382A;" cx="275.611" cy="46.886" r="3.168"/>
                    <ellipse style="fill:#FFFFFF;" cx="275.584" cy="45.422" rx="1.871" ry="1.145"/>
                </g>
            </g>

            <text transform="matrix(1 0 0 1 33.1321 99.4857)" style="fill:#CD1388; font-size:21.6028px;">Bower</text>
        </g>
    </g>
</svg>
