<svg version="1.1" id="InteractiveSVG" width="301" height="150"
preserveAspectRatio="xMinYMax meet"  viewBox="0 0 375.847 185.784" >
<g id="timeline">
  <g id="jquery">
    <rect x="233.422" y="0" style="fill:#EC6C23;" width="12.329" height="190.411"/>
    <polygon style="fill:#EC6C23;" points="234.502,87.743 227.211,93.143 235.042,98.184 "/>
    <g id="jquery-badge">
        <circle style="fill:#EC6C23;" cx="93.892" cy="92.892" r="92.892"/>
        <g id="jquery-details">

          <text transform="matrix(1 0 0 1 49.3093 121.1215)" style="fill:#FFFFFF; font-family: 'PrecisionSans_W_Bd'; font-size:12.9617px;">JavaScript that</text>

          <text transform="matrix(1 0 0 1 53.6481 136.6752)" style="fill:#FFFFFF; font-family: 'PrecisionSans_W_Bd'; font-size:12.9617px;">works across</text>

          <text transform="matrix(1 0 0 1 68.3864 152.2299)" style="fill:#FFFFFF; font-family: 'PrecisionSans_W_Bd'; font-size:12.9617px;">browsers.</text>


      </g>
      <g id="jquery-title">
          <path style="fill:#0769AD;" d="M67.896,45.058c-5.357,7.696-4.694,17.707-0.596,25.884c0.092,0.199,0.197,0.388,0.298,0.581
          c0.058,0.125,0.123,0.251,0.194,0.373c0.03,0.068,0.078,0.143,0.118,0.208c0.066,0.134,0.136,0.256,0.206,0.384
          c0.132,0.222,0.264,0.447,0.395,0.667c0.075,0.123,0.145,0.246,0.228,0.369c0.14,0.237,0.302,0.471,0.448,0.709
          c0.066,0.101,0.127,0.199,0.197,0.298c0.21,0.32,0.421,0.637,0.654,0.948c0,0.009,0.009,0.018,0.017,0.022
          c0.035,0.053,0.075,0.103,0.109,0.151c0.197,0.27,0.395,0.533,0.601,0.794c0.07,0.096,0.148,0.193,0.219,0.287
          c0.189,0.228,0.373,0.457,0.557,0.683c0.071,0.081,0.14,0.167,0.215,0.251c0.246,0.296,0.505,0.59,0.768,0.88
          c0,0.004,0.009,0.01,0.013,0.017c0.009,0.011,0.017,0.022,0.035,0.032c0.254,0.279,0.513,0.553,0.776,0.825
          c0.084,0.084,0.166,0.165,0.259,0.253c0.202,0.205,0.403,0.41,0.619,0.612c0.088,0.084,0.175,0.165,0.259,0.246
          c0.281,0.264,0.562,0.527,0.855,0.779c0.004,0.004,0.009,0.006,0.013,0.011c0.048,0.042,0.101,0.084,0.145,0.125
          c0.259,0.222,0.518,0.441,0.781,0.658c0.106,0.088,0.211,0.171,0.316,0.256c0.219,0.174,0.439,0.34,0.657,0.507
          c0.114,0.086,0.228,0.174,0.346,0.264c0.237,0.177,0.482,0.351,0.724,0.522c0.088,0.063,0.176,0.127,0.268,0.187
          c0.022,0.019,0.048,0.037,0.07,0.055c0.241,0.158,0.469,0.311,0.706,0.467c0.105,0.068,0.206,0.134,0.307,0.202
          c0.369,0.235,0.737,0.461,1.102,0.68c0.105,0.055,0.21,0.114,0.311,0.174c0.272,0.158,0.549,0.314,0.83,0.463
          c0.153,0.086,0.307,0.16,0.465,0.239c0.189,0.103,0.386,0.208,0.588,0.312c0.048,0.019,0.096,0.037,0.14,0.061
          c0.084,0.037,0.163,0.079,0.241,0.118c0.307,0.151,0.624,0.295,0.948,0.439c0.061,0.029,0.127,0.055,0.193,0.088
          c0.364,0.158,0.728,0.31,1.101,0.457c0.088,0.032,0.175,0.072,0.267,0.103c0.338,0.132,0.689,0.261,1.035,0.386
          c0.044,0.018,0.084,0.031,0.127,0.046c0.386,0.132,0.768,0.256,1.158,0.377c0.092,0.027,0.184,0.059,0.281,0.084
          c0.4,0.12,0.785,0.261,1.193,0.338c25.897,4.721,33.422-15.564,33.422-15.564c-6.322,8.228-17.54,10.402-28.166,7.984
          c-0.395-0.089-0.785-0.215-1.185-0.333c-0.092-0.027-0.197-0.057-0.29-0.089c-0.386-0.117-0.768-0.242-1.141-0.369
          c-0.053-0.017-0.109-0.037-0.163-0.059c-0.338-0.116-0.671-0.243-1.005-0.372c-0.092-0.04-0.189-0.073-0.281-0.108
          c-0.369-0.145-0.732-0.3-1.087-0.457c-0.079-0.028-0.145-0.061-0.22-0.091c-0.311-0.143-0.61-0.283-0.912-0.428
          c-0.091-0.039-0.175-0.084-0.267-0.129c-0.237-0.112-0.474-0.237-0.706-0.36c-0.163-0.084-0.321-0.16-0.474-0.246
          c-0.285-0.153-0.57-0.315-0.855-0.474c-0.088-0.06-0.184-0.11-0.285-0.165c-0.369-0.219-0.742-0.445-1.105-0.678
          c-0.105-0.066-0.202-0.132-0.298-0.199c-0.267-0.169-0.531-0.346-0.79-0.522c-0.084-0.059-0.166-0.12-0.254-0.182
          c-0.25-0.176-0.496-0.353-0.745-0.536c-0.106-0.084-0.215-0.166-0.33-0.25c-0.224-0.174-0.448-0.344-0.671-0.525
          c-0.097-0.081-0.197-0.16-0.295-0.239c-0.289-0.233-0.561-0.465-0.838-0.706c-0.027-0.029-0.066-0.053-0.096-0.077
          c-0.294-0.263-0.588-0.533-0.878-0.801c-0.088-0.084-0.162-0.16-0.25-0.239c-0.211-0.206-0.421-0.408-0.627-0.616
          c-0.088-0.087-0.167-0.169-0.251-0.252c-0.264-0.266-0.522-0.539-0.776-0.82c-0.013-0.012-0.027-0.024-0.04-0.04
          c-0.268-0.294-0.526-0.593-0.785-0.895c-0.071-0.081-0.136-0.164-0.206-0.243c-0.189-0.233-0.377-0.467-0.57-0.7
          c-0.061-0.09-0.132-0.176-0.202-0.264c-0.224-0.287-0.439-0.575-0.654-0.871c-5.895-8.043-8.023-19.145-3.306-28.255"/>
          <path style="fill:#0769AD;" d="M84.524,38.572c-3.883,5.572-3.668,13.032-0.645,18.928c0.5,0.987,1.071,1.946,1.711,2.857
          c0.579,0.833,1.22,1.82,1.996,2.49c0.272,0.307,0.566,0.606,0.869,0.906c0.075,0.075,0.149,0.148,0.228,0.226
          c0.29,0.279,0.584,0.553,0.886,0.82c0.009,0.012,0.027,0.022,0.035,0.033c0.004,0.002,0.009,0.006,0.009,0.006
          c0.338,0.298,0.68,0.581,1.035,0.858c0.084,0.059,0.158,0.125,0.241,0.184c0.351,0.274,0.711,0.537,1.075,0.796
          c0.013,0.004,0.022,0.013,0.04,0.02c0.158,0.114,0.324,0.219,0.496,0.329c0.074,0.048,0.153,0.105,0.228,0.151
          c0.268,0.174,0.531,0.335,0.803,0.496c0.04,0.019,0.078,0.041,0.118,0.061c0.228,0.138,0.469,0.274,0.711,0.397
          c0.084,0.05,0.166,0.09,0.25,0.136c0.167,0.084,0.333,0.171,0.496,0.256c0.022,0.012,0.053,0.024,0.079,0.035
          c0.342,0.169,0.688,0.324,1.03,0.48c0.084,0.033,0.154,0.061,0.233,0.094c0.281,0.12,0.566,0.239,0.847,0.346
          c0.127,0.042,0.246,0.092,0.364,0.134c0.259,0.091,0.522,0.182,0.781,0.267c0.127,0.042,0.241,0.077,0.355,0.114
          c0.369,0.117,0.742,0.266,1.132,0.326c19.988,3.315,24.613-12.082,24.613-12.082c-4.164,5.998-12.223,8.854-20.822,6.621
          c-0.386-0.099-0.763-0.209-1.132-0.33c-0.118-0.03-0.223-0.068-0.338-0.107c-0.268-0.086-0.536-0.176-0.794-0.272
          c-0.118-0.044-0.241-0.088-0.359-0.134c-0.285-0.112-0.57-0.222-0.847-0.344c-0.084-0.033-0.163-0.061-0.228-0.096
          c-0.355-0.154-0.706-0.318-1.048-0.482c-0.176-0.09-0.347-0.178-0.522-0.27c-0.105-0.053-0.206-0.103-0.298-0.151
          c-0.233-0.12-0.448-0.248-0.667-0.377c-0.052-0.029-0.105-0.055-0.158-0.086c-0.268-0.162-0.544-0.324-0.799-0.493
          c-0.088-0.05-0.163-0.107-0.246-0.16c-0.176-0.112-0.346-0.224-0.527-0.344c-0.364-0.253-0.719-0.52-1.074-0.788
          c-0.084-0.068-0.163-0.129-0.242-0.195c-3.773-2.97-6.757-7.032-8.169-11.632c-1.491-4.778-1.163-10.142,1.409-14.491"/>
          <path style="fill:#0769AD;" d="M98.502,33.726c-2.29,3.361-2.51,7.535-0.93,11.242c1.676,3.94,5.103,7.031,9.095,8.493
          c0.162,0.063,0.324,0.117,0.491,0.174c0.075,0.022,0.145,0.046,0.224,0.07c0.233,0.072,0.465,0.16,0.706,0.207
          c11.043,2.132,14.035-5.666,14.838-6.814c-2.628,3.778-7.037,4.683-12.447,3.369c-0.426-0.103-0.891-0.256-1.303-0.405
          c-0.526-0.187-1.048-0.403-1.558-0.643c-0.952-0.462-1.873-1.02-2.725-1.665c-4.843-3.672-7.844-10.676-4.686-16.382"/>
      </g>
  </g>

  <text transform="matrix(1 0 0 1 276.8125 99.4857)" style="fill:#EC6C23; font-size:21.6028px;">jQuery</text>

</g>

</g>
</svg>
