<svg version="1.1" id="InteractiveSVG" width="300" height="150"
preserveAspectRatio="xMinYMax meet"  viewBox="0 0 375.847 185.784" >
<g id="timeline">
    <g id="sass">
      <rect x="233.422" y="0" style="fill:#4E4E4E;" width="12.329" height="190.411"/>
      <polygon style="fill:#4E4E4E;" points="234.502,88.103 227.211,93.503 235.042,98.544"/>
      <g id="sass-badge">
        <circle style="fill:#4E4E4E;" cx="93.892" cy="92.892" r="92.892"/>
        <g id="sass-details">

          <text transform="matrix(1 0 0 1 53.3093 121.1215)" style="fill:#FFFFFF; font-family: 'PrecisionSans_W_Bd'; font-size:12.9617px;">A feature-rich</text>

          <text transform="matrix(1 0 0 1 53.6481 136.6752)" style="fill:#FFFFFF; font-family: 'PrecisionSans_W_Bd'; font-size:12.9617px;">CSS extension</text>

          <text transform="matrix(1 0 0 1 68.3864 152.2299)" style="fill:#FFFFFF; font-family: 'PrecisionSans_W_Bd'; font-size:12.9617px;">language.</text>

      </g>
      <g id="sass-title">
          <path style="fill:#D06398;" d="M115.304,63.692c-2.113,0.011-3.945,0.519-5.481,1.275c-0.561-1.12-1.13-2.106-1.225-2.839
          c-0.112-0.855-0.241-1.366-0.106-2.385c0.135-1.019,0.724-2.463,0.716-2.571c-0.009-0.108-0.133-0.627-1.352-0.636
          c-1.219-0.009-2.263,0.234-2.385,0.557c-0.122,0.323-0.358,1.047-0.503,1.802c-0.213,1.105-2.435,5.049-3.696,7.112
          c-0.412-0.805-0.763-1.515-0.836-2.076c-0.112-0.855-0.241-1.366-0.106-2.385c0.135-1.019,0.724-2.463,0.716-2.571
          c-0.009-0.108-0.132-0.627-1.352-0.636c-1.219-0.009-2.263,0.234-2.385,0.557c-0.122,0.323-0.254,1.074-0.503,1.802
          s-3.202,7.306-3.976,9.011c-0.394,0.869-0.737,1.567-0.979,2.043c-0.001-0.001-0.001-0.002-0.001-0.002s-0.014,0.032-0.041,0.085
          c-0.207,0.405-0.331,0.631-0.331,0.631s0.001,0.004,0.004,0.009c-0.164,0.298-0.34,0.574-0.427,0.574
          c-0.06,0-0.184-0.793,0.027-1.882c0.439-2.281,1.495-5.841,1.484-5.963c-0.006-0.063,0.197-0.683-0.689-1.007
          c-0.861-0.315-1.167,0.211-1.246,0.212c-0.076,0.001-0.132,0.186-0.132,0.186s0.958-4.002-1.828-4.002
          c-1.743,0-4.158,1.906-5.347,3.634c-0.751,0.41-2.356,1.287-4.061,2.223c-0.655,0.36-1.323,0.728-1.956,1.077
          c-0.043-0.048-0.086-0.095-0.13-0.143c-3.38-3.606-9.628-6.156-9.363-11.004c0.096-1.762,0.709-6.402,12.005-12.032
          c9.254-4.611,16.662-3.343,17.942-0.53c1.828,4.017-3.959,11.485-13.569,12.562c-3.662,0.41-5.59-1.008-6.069-1.537
          c-0.505-0.557-0.58-0.582-0.768-0.477c-0.307,0.17-0.112,0.662,0,0.954c0.287,0.747,1.464,2.07,3.472,2.73
          c1.766,0.58,6.065,0.898,11.264-1.113c5.823-2.252,10.369-8.517,9.034-13.754c-1.358-5.326-10.19-7.077-18.548-4.108
          c-4.974,1.767-10.36,4.541-14.232,8.163c-4.604,4.307-5.338,8.054-5.036,9.62c1.074,5.564,8.745,9.188,11.815,11.874
          c-0.151,0.084-0.294,0.162-0.423,0.233c-1.54,0.762-7.386,3.821-8.849,7.054c-1.658,3.667,0.264,6.297,1.537,6.652
          c3.945,1.097,7.992-0.877,10.167-4.121c2.174-3.243,1.909-7.467,0.911-9.395c-0.012-0.024-0.027-0.048-0.039-0.071
          c0.397-0.235,0.803-0.475,1.205-0.71c0.784-0.46,1.553-0.889,2.221-1.252c-0.373,1.024-0.647,2.25-0.789,4.022
          c-0.167,2.082,0.686,4.771,1.802,5.831c0.491,0.466,1.083,0.477,1.457,0.477c1.298,0,1.892-1.081,2.544-2.359
          c0.801-1.568,1.511-3.392,1.511-3.392s-0.891,4.929,1.537,4.929c0.884,0,1.774-1.147,2.171-1.733
          c0.001,0.006,0.002,0.01,0.002,0.01s0.023-0.037,0.068-0.114c0.091-0.14,0.143-0.23,0.143-0.23s0.002-0.009,0.004-0.025
          c0.356-0.617,1.144-2.025,2.328-4.347c1.528-3,2.995-6.758,2.995-6.758s0.137,0.919,0.583,2.438
          c0.263,0.894,0.822,1.882,1.261,2.83c-0.354,0.493-0.572,0.774-0.572,0.774s0.002,0.006,0.006,0.014
          c-0.284,0.377-0.601,0.782-0.933,1.178c-1.206,1.437-2.643,3.078-2.836,3.551c-0.226,0.557-0.174,0.969,0.265,1.298
          c0.32,0.241,0.89,0.278,1.484,0.238c1.084-0.073,1.848-0.341,2.223-0.506c0.586-0.207,1.27-0.534,1.911-1.005
          c1.184-0.87,1.897-2.115,1.828-3.763c-0.037-0.909-0.328-1.809-0.695-2.659c0.107-0.155,0.215-0.31,0.323-0.468
          c1.866-2.728,3.312-5.725,3.312-5.725s0.137,0.919,0.583,2.438c0.226,0.768,0.673,1.608,1.074,2.43
          c-1.755,1.426-2.842,3.082-3.22,4.169c-0.698,2.01-0.151,2.92,0.875,3.127c0.465,0.094,1.121-0.12,1.614-0.328
          c0.614-0.205,1.353-0.543,2.043-1.05c1.184-0.87,2.321-2.088,2.252-3.737c-0.031-0.751-0.235-1.495-0.511-2.211
          c1.488-0.619,3.412-0.964,5.864-0.678c5.261,0.614,6.293,3.899,6.096,5.274c-0.197,1.375-1.3,2.13-1.67,2.359
          c-0.369,0.228-0.482,0.307-0.451,0.477c0.045,0.246,0.215,0.238,0.53,0.184c0.433-0.073,2.763-1.118,2.862-3.656
          C123.859,67.201,120.772,63.663,115.304,63.692z M74.755,77.362c-1.743,1.9-4.177,2.619-5.221,2.014
          c-1.128-0.654-0.681-3.452,1.457-5.469c1.303-1.229,2.986-2.362,4.102-3.059c0.254-0.153,0.627-0.377,1.081-0.65
          c0.075-0.043,0.118-0.066,0.118-0.066l-0.002-0.004c0.087-0.052,0.176-0.106,0.269-0.161
          C77.338,72.84,76.584,75.367,74.755,77.362z M87.449,68.733c-0.607,1.48-1.877,5.265-2.65,5.062
          c-0.664-0.174-1.068-3.051-0.132-5.883c0.47-1.426,1.476-3.128,2.067-3.79c0.951-1.064,1.999-1.412,2.252-0.981
          C89.311,63.69,87.83,67.805,87.449,68.733z M97.937,73.737c-0.257,0.135-0.493,0.219-0.603,0.153
          c-0.081-0.048,0.106-0.225,0.106-0.225s1.312-1.411,1.828-2.054c0.3-0.373,0.65-0.817,1.029-1.313
          c0.004,0.05,0.004,0.098,0.004,0.147C100.299,72.136,98.665,73.278,97.937,73.737z M106.018,71.896
          c-0.192-0.137-0.16-0.578,0.472-1.954c0.248-0.54,0.813-1.449,1.795-2.318c0.114,0.358,0.184,0.7,0.181,1.019
          C108.452,70.771,106.935,71.566,106.018,71.896z"/>
      </g>
  </g>

  <text transform="matrix(1 0 0 1 276.8128 99.4857)" style="fill:#4E4E4E; font-size:21.6028px;">Sass</text>
</g>

</g>
</svg>
