<svg width="65" height="96" viewBox="0 0 65 96" xmlns="http://www.w3.org/2000/svg"><title>Server</title><desc>Created with Sketch.</desc><defs><filter x="-50%" y="-50%" width="200%" height="200%" filterUnits="objectBoundingBox" id="a"><feOffset dx="4" dy="5" in="SourceAlpha" result="shadowOffsetOuter1"/><feColorMatrix values="0 0 0 0 0 0 0 0 0 0 0 0 0 0 0 0 0 0 0.1 0" in="shadowOffsetOuter1" result="shadowMatrixOuter1"/><feMerge><feMergeNode in="shadowMatrixOuter1"/><feMergeNode in="SourceGraphic"/></feMerge></filter></defs><g filter="url(#a)" fill="none"><path d="M53.065 2h-45.391c-3.134 0-5.674 2.54-5.674 5.674v75.652c0 3.134 2.54 5.674 5.674 5.674h45.391c3.134 0 5.674-2.54 5.674-5.674v-75.652c0-3.134-2.54-5.674-5.674-5.674" stroke="#3E53A4" stroke-width="3" fill="#C5CBE3"/><g fill="#F3F4FA"><path d="M8 43.163h45.391v5.674h-45.391zM8 31.326h45.391v5.674h-45.391zM8 55h45.391v5.674h-45.391z"/></g><g fill="#fff"><path d="M35 52.697h-9v-22.697h9v22.697zm-4.5 16.618c-2.7 0-4.5-1.816-4.5-4.539 0-2.724 1.8-4.539 4.5-4.539s4.5 1.816 4.5 4.539c0 2.724-1.8 4.539-4.5 4.539z" stroke="#3E53A4" stroke-width="6"/><path d="M35 52.697h-9v-22.697h9v22.697zm-4.5 16.618c-2.7 0-4.5-1.816-4.5-4.539 0-2.724 1.8-4.539 4.5-4.539s4.5 1.816 4.5 4.539c0 2.724-1.8 4.539-4.5 4.539z"/></g></g></svg>