<svg width="65" height="96" viewBox="0 0 65 96" xmlns="http://www.w3.org/2000/svg"><title>Server</title><desc>Created with Sketch.</desc><defs><filter x="-50%" y="-50%" width="200%" height="200%" filterUnits="objectBoundingBox" id="a"><feOffset dx="4" dy="5" in="SourceAlpha" result="shadowOffsetOuter1"/><feColorMatrix values="0 0 0 0 0 0 0 0 0 0 0 0 0 0 0 0 0 0 0.1 0" in="shadowOffsetOuter1" result="shadowMatrixOuter1"/><feMerge><feMergeNode in="shadowMatrixOuter1"/><feMergeNode in="SourceGraphic"/></feMerge></filter></defs><g filter="url(#a)" fill="none"><path d="M53.065 2h-45.391c-3.134 0-5.674 2.54-5.674 5.674v75.652c0 3.134 2.54 5.674 5.674 5.674h45.391c3.134 0 5.674-2.54 5.674-5.674v-75.652c0-3.134-2.54-5.674-5.674-5.674" stroke="#3E53A4" stroke-width="3" fill="#C5CBE3"/><g fill="#F3F4FA"><path d="M7 43.163h45.391v5.674h-45.391z"/><path d="M7 31.326h45.391v5.674h-45.391z"/><path d="M7 55h45.391v5.674h-45.391z"/></g><path d="M27.263 59.737c-.11 0-.222-.027-.324-.081-.276-.148-.416-.465-.34-.769l2.525-10.097h-11.439c-.272 0-.517-.16-.627-.408-.109-.248-.061-.538.122-.738l15.053-16.421c.212-.231.553-.289.829-.14.276.148.416.465.34.769l-2.525 10.097h11.44c.271 0 .517.16.626.408.109.248.061.538-.122.738l-15.053 16.421c-.133.145-.318.222-.505.222" stroke="#3E53A4" stroke-width="6" fill="#fff"/><path d="M27.263 59.737c-.11 0-.222-.027-.324-.081-.276-.148-.416-.465-.34-.769l2.525-10.097h-11.439c-.272 0-.517-.16-.627-.408-.109-.248-.061-.538.122-.738l15.053-16.421c.212-.231.553-.289.829-.14.276.148.416.465.34.769l-2.525 10.097h11.44c.271 0 .517.16.626.408.109.248.061.538-.122.738l-15.053 16.421c-.133.145-.318.222-.505.222" fill="#fff"/></g></svg>