<svg width="93" height="96" viewBox="0 0 93 96" xmlns="http://www.w3.org/2000/svg"><title>Maintenance</title><desc>Created with Sketch.</desc><defs><filter x="-50%" y="-50%" width="200%" height="200%" filterUnits="objectBoundingBox" id="a"><feOffset dx="4" dy="5" in="SourceAlpha" result="shadowOffsetOuter1"/><feColorMatrix values="0 0 0 0 0 0 0 0 0 0 0 0 0 0 0 0 0 0 0.1 0" in="shadowOffsetOuter1" result="shadowMatrixOuter1"/><feMerge><feMergeNode in="shadowMatrixOuter1"/><feMergeNode in="SourceGraphic"/></feMerge></filter></defs><g filter="url(#a)" fill="none"><path d="M39.497 36.04l-12.161-12.161 1.638-4.908c.227-.681.049-1.43-.458-1.937l-10.697-10.697c-.739-.74-1.935-.74-2.674 0l-10.699 10.697c-.356.356-.554.836-.554 1.337 0 .503.199.983.554 1.337l10.699 10.699c.359.361.844.554 1.337.554.199 0 .403-.03.598-.096l4.908-1.636 12.161 12.159c.738.739 1.706 1.108 2.674 1.108s1.935-.369 2.674-1.108c1.477-1.477 1.477-3.871 0-5.349" stroke="#3E53A4" stroke-width="3" fill="#C5CBE3"/><path d="M39.826 60.63l24.021 24.021c5.224 5.222 13.691 5.222 18.913 0 5.224-5.224 5.224-13.691 0-18.913l-24.021-24.021-18.913 18.913z" stroke="#3E53A4" stroke-width="3" fill="#C5CBE3"/><path d="M74.738 78.519c-.484 0-.968-.185-1.337-.554l-15.999-15.997c-.739-.739-.739-1.935 0-2.674.739-.739 1.935-.739 2.674 0l15.999 15.997c.739.74.739 1.935 0 2.674-.369.369-.853.554-1.337.554" fill="#3E53A4"/><path d="M18.093 73.936c-2.09 0-3.783-1.695-3.783-3.783 0-2.09 1.693-3.783 3.783-3.783s3.783 1.693 3.783 3.783c0 2.088-1.693 3.783-3.783 3.783m67.805-56.236c-.204-.626-.717-1.101-1.356-1.256-.647-.153-1.316.036-1.782.501l-9.91 9.909-10.699-10.699 9.91-9.909c.465-.465.656-1.14.503-1.778-.155-.641-.63-1.156-1.256-1.358-2.911-.944-5.929-1.288-8.959-1.025-11.63 1.006-20.929 11.323-20.731 22.994.032 1.799.276 3.586.73 5.328l-35.46 31.301c-3.024 2.671-4.757 6.36-4.881 10.391-.125 4.03 1.377 7.821 4.227 10.673 2.742 2.74 6.351 4.233 10.207 4.233l.467-.008c4.03-.125 7.72-1.859 10.389-4.881l31.299-35.458c3.346.876 6.786.968 10.253.282 8.227-1.64 15.007-7.885 17.271-15.912 1.244-4.422 1.169-9.031-.223-13.328" stroke="#3E53A4" stroke-width="3" fill="#F3F4FA"/></g></svg>