<svg width="103" height="96" viewBox="0 0 103 96" xmlns="http://www.w3.org/2000/svg"><title>Page Not Found</title><desc>Created with Sketch.</desc><defs><filter x="-50%" y="-50%" width="200%" height="200%" filterUnits="objectBoundingBox" id="a"><feOffset dx="4" dy="5" in="SourceAlpha" result="shadowOffsetOuter1"/><feColorMatrix values="0 0 0 0 0 0 0 0 0 0 0 0 0 0 0 0 0 0 0.1 0" in="shadowOffsetOuter1" result="shadowMatrixOuter1"/><feMerge><feMergeNode in="shadowMatrixOuter1"/><feMergeNode in="SourceGraphic"/></feMerge></filter></defs><g filter="url(#a)" fill="none"><path d="M2 84.857c0 2.289 1.854 4.143 4.143 4.143h87c2.287 0 4.143-1.854 4.143-4.143v-66.286h-95.286v66.286z" stroke="#3E53A4" stroke-width="3" fill="#C5CBE3"/><path d="M93.143 2h-87c-2.289 0-4.143 1.854-4.143 4.143v12.429h95.286v-12.429c0-2.289-1.856-4.143-4.143-4.143" stroke="#3E53A4" stroke-width="3" fill="#EAEDF8"/><path d="M20.643 12.357h-8.286c-1.143 0-2.071-.926-2.071-2.071s.928-2.071 2.071-2.071h8.286c1.143 0 2.071.926 2.071 2.071 0 1.146-.928 2.071-2.071 2.071" fill="#3E53A4"/><path d="M55.761 43.59l-6.118 6.118-6.118-6.118c-1.126-1.126-2.953-1.126-4.078 0-1.126 1.126-1.126 2.953 0 4.078l6.118 6.118-6.118 6.118c-1.126 1.126-1.126 2.953 0 4.078 1.126 1.126 2.953 1.126 4.078 0l6.118-6.118 6.118 6.118c1.126 1.126 2.953 1.126 4.078 0 1.126-1.126 1.126-2.953 0-4.078l-6.118-6.118 6.118-6.118c1.126-1.126 1.126-2.953 0-4.078-1.126-1.126-2.953-1.126-4.078 0" stroke="#3E53A4" stroke-width="6" fill="#fff"/><path d="M55.761 43.59l-6.118 6.118-6.118-6.118c-1.126-1.126-2.953-1.126-4.078 0-1.126 1.126-1.126 2.953 0 4.078l6.118 6.118-6.118 6.118c-1.126 1.126-1.126 2.953 0 4.078 1.126 1.126 2.953 1.126 4.078 0l6.118-6.118 6.118 6.118c1.126 1.126 2.953 1.126 4.078 0 1.126-1.126 1.126-2.953 0-4.078l-6.118-6.118 6.118-6.118c1.126-1.126 1.126-2.953 0-4.078-1.126-1.126-2.953-1.126-4.078 0" fill="#fff"/></g></svg>