<svg width="95" height="96" viewBox="0 0 95 96" xmlns="http://www.w3.org/2000/svg"><title>Inactive</title><desc>Created with Sketch.</desc><defs><filter x="-50%" y="-50%" width="200%" height="200%" filterUnits="objectBoundingBox" id="a"><feOffset dx="4" dy="5" in="SourceAlpha" result="shadowOffsetOuter1"/><feColorMatrix values="0 0 0 0 0 0 0 0 0 0 0 0 0 0 0 0 0 0 0.1 0" in="shadowOffsetOuter1" result="shadowMatrixOuter1"/><feMerge><feMergeNode in="shadowMatrixOuter1"/><feMergeNode in="SourceGraphic"/></feMerge></filter></defs><g filter="url(#a)" fill="none"><path d="M43.609 73.87c-11.883 0-22.425-8.133-25.533-19.507-9.387-2.175-16.076-10.483-16.076-20.21 0-11.471 9.334-20.804 20.804-20.804.664 0 1.299.055 1.906.129 4.49-7.109 12.339-11.476 20.789-11.476 12.965 0 23.621 10.088 24.525 22.828.67-.089 1.313-.132 1.954-.132 9.387 0 17.022 7.635 17.022 17.022 0 9.387-7.635 17.022-17.022 17.022-1.39 0-2.801-.189-4.214-.564-4.227 9.457-13.716 15.694-24.156 15.694" stroke="#3E53A4" stroke-width="3" fill="#C5CBE3"/><path d="M11.457 89c-5.214 0-9.457-4.242-9.457-9.457 0-5.214 4.242-9.457 9.457-9.457 5.214 0 9.457 4.242 9.457 9.457 0 5.214-4.242 9.457-9.457 9.457" stroke="#3E53A4" stroke-width="3" fill="#C5CBE3"/><path d="M53.022 49.696h-15.13c-.728 0-1.388-.418-1.704-1.07-.314-.656-.227-1.434.227-2.003l12.672-15.84h-11.195c-1.046 0-1.891-.845-1.891-1.891s.845-1.891 1.891-1.891h15.13c.728 0 1.388.418 1.704 1.07.314.656.227 1.434-.227 2.003l-12.672 15.84h11.195c1.046 0 1.891.845 1.891 1.891s-.845 1.891-1.891 1.891" stroke="#3E53A4" stroke-width="6" fill="#fff"/><path d="M53.022 49.696h-15.13c-.728 0-1.388-.418-1.704-1.07-.314-.656-.227-1.434.227-2.003l12.672-15.84h-11.195c-1.046 0-1.891-.845-1.891-1.891s.845-1.891 1.891-1.891h15.13c.728 0 1.388.418 1.704 1.07.314.656.227 1.434-.227 2.003l-12.672 15.84h11.195c1.046 0 1.891.845 1.891 1.891s-.845 1.891-1.891 1.891" fill="#fff"/></g></svg>