<?xml version="1.0" encoding="UTF-8" standalone="no"?>
<svg width="83px" height="84px" viewBox="0 0 83 84" version="1.1" xmlns="http://www.w3.org/2000/svg" xmlns:xlink="http://www.w3.org/1999/xlink">
    <!-- Generator: Sketch 3.6.1 (26313) - http://www.bohemiancoding.com/sketch -->
    <title>icon-error-500-centered</title>
    <desc>Created with Sketch.</desc>
    <defs>
        <filter x="-50%" y="-50%" width="200%" height="200%" filterUnits="objectBoundingBox" id="filter-1">
            <feOffset dx="4" dy="4" in="SourceAlpha" result="shadowOffsetOuter1"></feOffset>
            <feGaussianBlur stdDeviation="0" in="shadowOffsetOuter1" result="shadowBlurOuter1"></feGaussianBlur>
            <feColorMatrix values="0 0 0 0 0.243137255   0 0 0 0 0.349019608   0 0 0 0 0.42745098  0 0 0 0.07 0" in="shadowBlurOuter1" type="matrix" result="shadowMatrixOuter1"></feColorMatrix>
            <feMerge>
                <feMergeNode in="shadowMatrixOuter1"></feMergeNode>
                <feMergeNode in="SourceGraphic"></feMergeNode>
            </feMerge>
        </filter>
    </defs>
    <g id="Page-Errors" stroke="none" stroke-width="1" fill="none" fill-rule="evenodd" filter="url(#filter-1)">
        <g id="Style-Guide-Errors" transform="translate(-663.000000, -3025.000000)">
            <g id="500-Center" transform="translate(117.000000, 2895.000000)">
                <g id="icon-error-500-centered" transform="translate(546.000000, 130.000000)">
                    <path d="M76.5720786,43.1466667 C77.8920693,43.1466667 78.9625999,42.065 78.9625999,40.7333333 C78.9625999,36.0566667 78.1646581,31.475 76.5935553,27.1166667 C76.1408927,25.8633333 74.7713404,25.2183333 73.5273442,25.6733333 L71.201253,26.5266667 C70.2100209,24.2783333 68.9875014,22.1466667 67.5419546,20.1483333 L69.438512,18.5433333 C69.562416,18.44 69.6731036,18.3233333 69.7722268,18.1966667 C69.8003117,18.1616667 69.8184843,18.1216667 69.8449171,18.0866667 C69.9093472,17.9933333 69.9754293,17.9 70.0249909,17.8016667 C70.0530758,17.745 70.0695964,17.6883333 70.0927251,17.6316667 C70.1307223,17.5433333 70.1703716,17.4566667 70.1984565,17.3633333 C70.2083689,17.3283333 70.2100209,17.2916667 70.2182812,17.2583333 C70.2463661,17.1433333 70.2727989,17.0266667 70.2827113,16.9066667 C70.2926236,16.7966667 70.2843633,16.6883333 70.2794072,16.5816667 C70.2777551,16.535 70.2827113,16.4866667 70.2777551,16.44 C70.2678428,16.355 70.2463661,16.2733333 70.2281935,16.19 C70.211673,16.12 70.2050648,16.0466667 70.1835881,15.9783333 C70.1571552,15.8933333 70.1158539,15.81 70.0795087,15.7266667 C70.0514238,15.6666667 70.0332512,15.6033333 70.0002101,15.545 C69.9242157,15.4033333 69.8350048,15.27 69.7325775,15.145 C66.7588813,11.575 63.2300952,8.585 59.2387342,6.255 L59.2370821,6.255 C59.2271698,6.24833333 59.2156054,6.24666667 59.2040411,6.24 C59.076833,6.16833333 58.9430166,6.105 58.8042441,6.05833333 C58.708425,6.025 58.6109539,6.01 58.5134827,5.99 C58.4573129,5.97833333 58.4044472,5.96 58.3499295,5.95166667 C58.2475021,5.94 58.1434228,5.94166667 58.0409955,5.94166667 C57.9881298,5.94166667 57.935264,5.935 57.8823983,5.93833333 C57.7750149,5.945 57.6692834,5.96833333 57.563552,5.99 C57.5172945,6 57.471037,6 57.4247795,6.01166667 C57.3834782,6.025 57.347133,6.04333333 57.3074837,6.05666667 C57.1984482,6.09333333 57.0910648,6.12833333 56.9886374,6.18 C56.9407279,6.20333333 56.8977745,6.235 56.851517,6.26333333 C56.7623061,6.315 56.6714432,6.36333333 56.5904926,6.42666667 C56.5458871,6.46 56.511194,6.50333333 56.4682406,6.54 C56.3922462,6.60666667 56.3162517,6.67166667 56.2485175,6.74833333 C56.1427861,6.86666667 56.0502711,6.99833333 55.9709725,7.13833333 L54.7335845,9.29833333 C54.6493298,9.25666667 54.563423,9.22166667 54.4791683,9.18 C54.1371932,9.015 53.7919141,8.85666667 53.4449829,8.70333333 C53.2731693,8.62666667 53.1030078,8.54666667 52.9311943,8.475 C52.4322741,8.265 51.9317019,8.06333333 51.4245215,7.87666667 C51.3914805,7.86333333 51.3567874,7.85 51.3220942,7.83666667 C50.8116097,7.65 50.294517,7.47833333 49.7741202,7.31666667 C49.5923943,7.25833333 49.4073643,7.20833333 49.2256384,7.155 C48.8654908,7.04833333 48.5020391,6.945 48.1385873,6.85166667 C48.0477244,6.82833333 47.9585135,6.8 47.8676505,6.77666667 L48.2971844,4.31833333 C48.3517022,4 48.3401378,3.685 48.2757077,3.38833333 C48.2757077,3.38333333 48.2757077,3.38 48.2740557,3.375 C48.2443187,3.23666667 48.1980612,3.1 48.1418914,2.96833333 C48.1369352,2.955 48.1352832,2.94166667 48.130327,2.92666667 C48.065897,2.78333333 47.9899025,2.645 47.9006916,2.51666667 L47.8990396,2.515 C47.8907793,2.50166667 47.8792149,2.49166667 47.8693026,2.48 C47.7866999,2.365 47.695837,2.25666667 47.5950617,2.15833333 C47.5636727,2.12833333 47.5289796,2.10666667 47.4975906,2.08 C47.4100317,2.005 47.324125,1.93 47.2283059,1.86666667 C47.1837004,1.83833333 47.1357909,1.82166667 47.0895334,1.79666667 C46.9986704,1.745 46.9094596,1.69333333 46.8119884,1.655 C46.6996488,1.60833333 46.5790489,1.58166667 46.458449,1.55333333 C46.4237559,1.545 46.3923668,1.53 46.3576737,1.525 L46.3560217,1.525 C46.3543696,1.52333333 46.3527176,1.52333333 46.3527176,1.52333333 C41.8591323,0.731666667 37.1524321,0.73 32.663803,1.52333333 L32.6522386,1.52333333 C32.50851,1.55 32.3730416,1.59166667 32.2425294,1.64 C32.2293129,1.64666667 32.2144444,1.64666667 32.201228,1.65166667 C32.0674117,1.70333333 31.9435077,1.77166667 31.8245598,1.845 C31.8129955,1.85166667 31.798127,1.85833333 31.7832585,1.86666667 C31.6659627,1.94333333 31.5602313,2.03 31.457804,2.12333333 C31.4445876,2.135 31.428067,2.14333333 31.4148506,2.15666667 C31.1885193,2.37666667 31.0051413,2.64 30.8795853,2.92833333 C30.8729771,2.945 30.869673,2.96 30.8630648,2.97833333 C30.810199,3.105 30.7639415,3.23666667 30.7342046,3.375 C30.7275964,3.40166667 30.7292484,3.42833333 30.7242923,3.45166667 C30.6995115,3.58 30.6813389,3.71166667 30.6780348,3.84333333 C30.6763827,3.935 30.6895991,4.02833333 30.6978594,4.11833333 C30.7044676,4.18666667 30.7011635,4.25 30.7127279,4.31833333 L31.1422618,6.77666667 C31.0613112,6.79666667 30.9820126,6.82333333 30.8994099,6.845 C30.5078733,6.945 30.1179887,7.055 29.7314082,7.17 C29.572811,7.21666667 29.4125619,7.26 29.2539647,7.31 C28.1735218,7.645 27.1095994,8.03666667 26.0671537,8.48 C25.9118607,8.545 25.7598718,8.615 25.6062308,8.68333333 C25.2361708,8.84666667 24.869415,9.015 24.5059632,9.19166667 C24.4299688,9.22833333 24.3506702,9.26 24.2763278,9.29833333 L23.0389398,7.13666667 C22.9877261,7.04833333 22.923296,6.97166667 22.8638221,6.89166667 C22.829129,6.845 22.8010441,6.79333333 22.7630469,6.75 C22.6787921,6.655 22.5846251,6.57166667 22.488806,6.49166667 C22.4640252,6.47166667 22.4458526,6.44666667 22.4210718,6.42666667 C22.3120363,6.34333333 22.1947405,6.275 22.0757926,6.21166667 C22.055968,6.20166667 22.0427516,6.18833333 22.026231,6.18 C21.7437299,6.04 21.436448,5.95666667 21.1225578,5.93666667 C21.1060373,5.93666667 21.0878647,5.93833333 21.0713442,5.93833333 C20.9342237,5.93166667 20.7971033,5.935 20.6583308,5.95166667 C20.6236377,5.95666667 20.5939007,5.96833333 20.5592076,5.97333333 C20.4402598,5.995 20.3213119,6.01833333 20.2040161,6.05833333 C20.1115011,6.08833333 20.0255944,6.135 19.9396876,6.18 C19.8835178,6.205 19.8256959,6.22333333 19.7711781,6.25333333 L19.7711781,6.255 C15.7814691,8.58166667 12.252683,11.5733333 9.27733485,15.145 C9.17325548,15.27 9.0840446,15.4033333 9.00805014,15.545 C8.97666112,15.6033333 8.95848854,15.6666667 8.93040363,15.73 C8.89571051,15.81 8.85275712,15.8933333 8.82632426,15.9783333 C8.80319552,16.0566667 8.79328319,16.135 8.77841471,16.2133333 C8.76189418,16.2883333 8.74041749,16.3616667 8.73215722,16.44 C8.72389695,16.5283333 8.72885311,16.615 8.72885311,16.7016667 C8.72885311,16.77 8.72059284,16.8383333 8.72720106,16.9066667 C8.73215722,16.9816667 8.75528597,17.0516667 8.76850239,17.125 C8.78171882,17.2066667 8.78997909,17.2866667 8.81310784,17.365 C8.83458453,17.4466667 8.87258176,17.5233333 8.90397077,17.6016667 C8.93040363,17.67 8.95188032,17.7366667 8.98492139,17.8016667 C9.03117889,17.8916667 9.08900076,17.9733333 9.14517057,18.0566667 C9.17655959,18.1033333 9.20299244,18.1533333 9.23933762,18.1983333 C9.33680877,18.325 9.44749635,18.44 9.57305241,18.5433333 L11.4663056,20.1483333 C11.4134399,20.2216667 11.3688345,20.2966667 11.3159688,20.3683333 C11.0830292,20.6966667 10.85835,21.0283333 10.6369748,21.3616667 C10.5428078,21.5033333 10.4469887,21.6433333 10.3561257,21.785 C9.74156185,22.7433333 9.17490753,23.7333333 8.65781481,24.7483333 C8.5801683,24.8966667 8.50913001,25.0516667 8.43313555,25.205 C8.25801789,25.565 8.08455228,25.925 7.92099899,26.2883333 C7.88465382,26.37 7.84335248,26.4466667 7.80700731,26.5266667 L6.41267423,26.0133333 L5.48256815,25.6716667 C5.33057924,25.6166667 5.17528622,25.5783333 5.01834114,25.555 C4.93078231,25.54 4.84487554,25.5433333 4.75896876,25.54 C4.69123457,25.5366667 4.62184832,25.525 4.55411413,25.53 C4.43186218,25.535 4.31456639,25.5566667 4.1972706,25.58 C4.16422953,25.59 4.12788435,25.59 4.09484329,25.5966667 C3.7892134,25.6716667 3.50175611,25.8066667 3.25064399,25.995 C3.23412346,26.0066667 3.22255908,26.02 3.20603855,26.0333333 C3.09865508,26.1166667 2.99622777,26.205 2.90371277,26.3066667 C2.87893197,26.335 2.86075939,26.365 2.83763064,26.3916667 C2.76163618,26.4866667 2.68564172,26.5783333 2.62286369,26.6833333 C2.57495414,26.7616667 2.54191308,26.8466667 2.5055679,26.9283333 C2.47583094,26.9916667 2.43948576,27.05 2.41635702,27.115 C2.41635702,27.1166667 2.41470496,27.1183333 2.41470496,27.1183333 C0.841950113,31.4766667 0.0456603679,36.0583333 0.0456603679,40.7333333 C0.0456603679,42.0666667 1.11784303,43.1483333 2.43618166,43.1483333 L4.90930562,43.1483333 C4.91591383,43.2383333 4.92913026,43.3283333 4.93573847,43.4216667 C4.96547543,43.8116667 5.00347266,44.2033333 5.044774,44.5883333 C5.06459864,44.77 5.08111917,44.9533333 5.10424792,45.1333333 C5.17198211,45.6766667 5.24962862,46.2183333 5.34214361,46.76 C5.34709977,46.78 5.34875183,46.8 5.35205593,46.82 C5.44952708,47.3766667 5.56186672,47.93 5.68577072,48.4816667 C5.72707206,48.6616667 5.77332955,48.8416667 5.81628294,49.02 C5.90549383,49.3933333 6.00131293,49.7666667 6.10208818,50.1366667 C6.12686898,50.2266667 6.14669363,50.3166667 6.17147443,50.405 L3.84538322,51.26 C3.69669841,51.315 3.55627387,51.3833333 3.4241096,51.4633333 C3.37950416,51.495 3.34150693,51.5266667 3.29855354,51.5566667 C3.21595087,51.615 3.13500025,51.6733333 3.06065785,51.74 C3.01605241,51.78 2.97640312,51.8283333 2.93675384,51.8716667 C2.87397581,51.9366667 2.81284984,52.0016667 2.75833207,52.0733333 C2.7219869,52.1233333 2.69059788,52.18 2.65755682,52.2333333 C2.60964727,52.3066667 2.56338977,52.3783333 2.5270446,52.4566667 C2.49730763,52.5133333 2.47583094,52.5733333 2.45270219,52.6333333 C2.42131318,52.7133333 2.38992416,52.7916667 2.36679541,52.875 C2.34862283,52.9383333 2.33705845,53.0016667 2.32549408,53.0683333 C2.30897354,53.15 2.29575712,53.2333333 2.28749685,53.3166667 C2.28254069,53.385 2.28088864,53.4533333 2.28088864,53.5233333 C2.28088864,53.6066667 2.28419274,53.69 2.29245301,53.7733333 C2.29906122,53.845 2.3106256,53.915 2.32549408,53.9866667 C2.33210229,54.0266667 2.33375435,54.07 2.34366667,54.1116667 C2.36183925,54.1883333 2.38662006,54.2666667 2.41470496,54.3433333 C2.41635702,54.345 2.41635702,54.3483333 2.41635702,54.35 C2.41635702,54.3516667 2.41800907,54.3533333 2.41800907,54.3533333 L2.42131318,54.3633333 C3.99572008,58.7266667 6.30198665,62.75 9.27568279,66.3216667 L9.27733485,66.3233333 L9.27733485,66.325 L9.2789869,66.325 C9.39132653,66.46 9.51523054,66.5766667 9.65069892,66.6816667 C9.69200025,66.7133333 9.74156185,66.7383333 9.7861673,66.7666667 C9.87868229,66.8316667 9.97284933,66.8933333 10.0719725,66.9416667 C10.1330985,66.9716667 10.1942245,66.99 10.2570025,67.015 C10.3462134,67.05 10.4354243,67.0833333 10.5295913,67.1066667 C10.6006296,67.1216667 10.6716679,67.1333333 10.7410542,67.145 C10.8302651,67.1583333 10.9178239,67.1716667 11.0053827,67.175 C11.0400758,67.1766667 11.074769,67.1883333 11.1111141,67.1883333 C11.1623278,67.1883333 11.2151935,67.175 11.2680592,67.1716667 C11.3176208,67.1683333 11.3688345,67.1666667 11.4183961,67.1583333 C11.5158672,67.1466667 11.6149904,67.1233333 11.7108095,67.0983333 C11.757067,67.0866667 11.8033245,67.0766667 11.849582,67.0616667 C11.9536614,67.0283333 12.0527846,66.9833333 12.1519078,66.935 C12.189905,66.915 12.2279022,66.9033333 12.2642474,66.8833333 C12.3964117,66.8083333 12.5252719,66.7216667 12.6475238,66.62 L14.5424291,65.0133333 C14.601903,65.075 14.664681,65.13 14.7208508,65.19 C15.0099602,65.4883333 15.3023736,65.7783333 15.5997433,66.065 C15.7137349,66.1733333 15.8260746,66.2866667 15.9417183,66.3916667 C16.7743532,67.1733333 17.6433333,67.9083333 18.5486586,68.6016667 C18.6758667,68.7 18.808031,68.795 18.9385432,68.8916667 C19.2639977,69.135 19.5927564,69.3733333 19.9264712,69.6033333 C19.9975094,69.6516667 20.0652436,69.705 20.1346299,69.755 L18.8972419,71.9183333 C18.2364205,73.0733333 18.6279572,74.5466667 19.7711781,75.2133333 C19.7728302,75.215 19.7744822,75.215 19.7744822,75.215 C23.7724515,77.5466667 28.1057876,79.1383333 32.6538907,79.945 C32.7926631,79.9683333 32.9314356,79.98 33.0685561,79.98 C34.0647443,79.98 34.9634613,79.3483333 35.3087405,78.4083333 C35.3583021,78.2733333 35.3962993,78.1333333 35.4210801,77.9866667 L35.8522661,75.5233333 C35.9414769,75.5316667 36.0290358,75.535 36.1165946,75.545 C36.5031751,75.5816667 36.8897556,75.6116667 37.2779882,75.6366667 C37.458062,75.6483333 37.6381358,75.6633333 37.8182096,75.6716667 C38.3799078,75.7 38.943258,75.7166667 39.5049562,75.7166667 L39.5066082,75.7166667 C40.0666543,75.7166667 40.6283525,75.7 41.1900506,75.6716667 C41.3717765,75.6633333 41.5535024,75.6483333 41.7352283,75.6366667 C42.1218088,75.61 42.5067372,75.5816667 42.8916657,75.545 C42.9792245,75.535 43.0700874,75.5316667 43.1576463,75.5233333 L43.5871801,77.9866667 C43.5970925,78.0466667 43.6218733,78.1016667 43.6367417,78.1616667 C43.6582184,78.2483333 43.6780431,78.3366667 43.7094321,78.4216667 C43.737517,78.4983333 43.7755142,78.5666667 43.8118594,78.6383333 C43.8415964,78.7 43.8680292,78.7616667 43.9043744,78.82 C43.9456757,78.8916667 43.9968894,78.9566667 44.046451,79.0216667 C44.0844482,79.0716667 44.1224455,79.125 44.1620947,79.17 C44.2182646,79.2316667 44.2777385,79.29 44.3405165,79.345 C44.3851219,79.3883333 44.4297274,79.4266667 44.4776369,79.465 C44.5437191,79.515 44.6098012,79.5633333 44.6808395,79.6083333 C44.7337052,79.64 44.7865709,79.6716667 44.8410887,79.6983333 C44.913779,79.7383333 44.9864694,79.7733333 45.0624638,79.8033333 C45.1219378,79.8283333 45.1847158,79.8466667 45.2474938,79.8666667 C45.3234883,79.8916667 45.3978307,79.9133333 45.4754772,79.93 C45.5481675,79.9433333 45.6208579,79.95 45.6935482,79.9566667 C45.7678907,79.965 45.840581,79.975 45.9149234,79.9766667 C45.9248357,79.9766667 45.9314439,79.9783333 45.9413563,79.9783333 C46.0487397,79.9783333 46.1577753,79.965 46.2668108,79.95 C46.2981998,79.9466667 46.3279368,79.95 46.3576737,79.9433333 C46.3642819,79.9433333 46.3692381,79.94 46.3758463,79.9383333 C50.9107329,79.135 55.2374608,77.5466667 59.2403862,75.2133333 C60.3836072,74.5466667 60.7734918,73.0716667 60.1126704,71.9183333 L58.8736304,69.755 C60.8973958,68.3766667 62.7691723,66.79 64.4658312,65.0133333 L66.3623885,66.62 C66.3855173,66.6383333 66.4119501,66.6516667 66.4367309,66.67 C66.5342021,66.7466667 66.6333253,66.8183333 66.7390567,66.8783333 C66.7886183,66.9066667 66.841484,66.9233333 66.8926977,66.9483333 C66.9769524,66.9883333 67.0612071,67.0283333 67.1487659,67.0566667 C67.2065878,67.0766667 67.2660617,67.0883333 67.3222315,67.1033333 C67.4064863,67.1233333 67.492393,67.1433333 67.5782998,67.155 C67.6394258,67.1633333 67.6988997,67.1666667 67.7600257,67.1716667 C67.8062832,67.175 67.8525407,67.1833333 67.9004502,67.1833333 C67.9318393,67.1833333 67.9615762,67.175 67.9929652,67.1733333 C68.0887843,67.17 68.1846034,67.1583333 68.2804225,67.1416667 C68.3448526,67.1316667 68.4109347,67.1216667 68.4737128,67.1066667 C68.572836,67.0816667 68.665351,67.0466667 68.7611701,67.01 C68.8189919,66.9866667 68.8784659,66.9683333 68.9346357,66.9416667 C69.037063,66.8916667 69.13123,66.83 69.2270491,66.7666667 C69.2700025,66.735 69.3179121,66.7116667 69.3592134,66.6783333 C69.4930297,66.575 69.6185858,66.4566667 69.7325775,66.3216667 C72.7079257,62.7466667 75.0158443,58.7183333 76.5935553,54.3516667 C76.646421,54.2033333 76.6860703,54.045 76.709199,53.8866667 C76.7240675,53.7916667 76.7224155,53.6983333 76.7257196,53.6016667 C76.7273716,53.54 76.7356319,53.4783333 76.7339798,53.4166667 C76.7290237,53.3116667 76.707547,53.21 76.6910265,53.1066667 C76.6811141,53.055 76.6794621,53.0016667 76.6662457,52.9533333 C76.6348566,52.8166667 76.5869471,52.6866667 76.5307773,52.5616667 C76.5241691,52.5433333 76.520865,52.5266667 76.5126047,52.5083333 C76.5059965,52.4916667 76.4944321,52.4783333 76.4861718,52.4633333 C76.4250459,52.3366667 76.3573117,52.2166667 76.276361,52.1033333 C76.2400159,52.0533333 76.1954104,52.0133333 76.1557611,51.9666667 C76.0946352,51.8933333 76.0351612,51.82 75.965775,51.7533333 C75.9145614,51.705 75.8534354,51.6683333 75.7989176,51.625 C75.7311834,51.57 75.6667533,51.5133333 75.5924109,51.4683333 C75.4569426,51.385 75.314866,51.315 75.1645291,51.26 L72.8367858,50.405 C73.5108236,48.04 73.9320973,45.6133333 74.0989546,43.1466667 L76.5720786,43.1466667 L76.5720786,43.1466667 Z" id="Fill-84" fill="#D6F1FF"></path>
                    <path d="M39.5049562,60.0366667 C28.9565951,60.0366667 20.3725256,51.375 20.3725256,40.7333333 C20.3725256,39.4016667 19.301995,38.32 17.9820043,38.32 C16.6620136,38.32 15.5898309,39.4016667 15.5898309,40.7333333 C15.5898309,54.0366667 26.3199179,64.8616667 39.5049562,64.8616667 C40.8249468,64.8616667 41.8971295,63.7816667 41.8971295,62.4483333 C41.8971295,61.1166667 40.8249468,60.0366667 39.5049562,60.0366667" id="Fill-82" fill="#009BDF"></path>
                    <path d="M39.5049562,16.6083333 C38.1849655,16.6083333 37.1127828,17.6883333 37.1127828,19.0216667 C37.1127828,20.3533333 38.1849655,21.4333333 39.5049562,21.4333333 C50.0549693,21.4333333 58.6373867,30.0916667 58.6373867,40.7333333 C58.6373867,42.065 59.7079174,43.1466667 61.027908,43.1466667 C62.3478987,43.1466667 63.4184293,42.065 63.4184293,40.7333333 C63.4184293,27.43 52.6916465,16.6083333 39.5049562,16.6083333" id="Fill-83" fill="#009BDF"></path>
                    <path d="M76.5720786,43.1466667 C77.8920693,43.1466667 78.9625999,42.065 78.9625999,40.7333333 C78.9625999,36.0566667 78.1646581,31.475 76.5935553,27.1166667 C76.1408927,25.8633333 74.7713404,25.2183333 73.5273442,25.6733333 L71.201253,26.5266667 C70.2100209,24.2783333 68.9875014,22.1466667 67.5419546,20.1483333 L69.438512,18.5433333 C69.562416,18.44 69.6731036,18.3233333 69.7722268,18.1966667 C69.8003117,18.1616667 69.8184843,18.1216667 69.8449171,18.0866667 C69.9093472,17.9933333 69.9754293,17.9 70.0249909,17.8016667 C70.0530758,17.745 70.0695964,17.6883333 70.0927251,17.6316667 C70.1307223,17.5433333 70.1703716,17.4566667 70.1984565,17.3633333 C70.2083689,17.3283333 70.2100209,17.2916667 70.2182812,17.2583333 C70.2463661,17.1433333 70.2727989,17.0266667 70.2827113,16.9066667 C70.2926236,16.7966667 70.2843633,16.6883333 70.2794072,16.5816667 C70.2777551,16.535 70.2827113,16.4866667 70.2777551,16.44 C70.2678428,16.355 70.2463661,16.2733333 70.2281935,16.19 C70.211673,16.12 70.2050648,16.0466667 70.1835881,15.9783333 C70.1571552,15.8933333 70.1158539,15.81 70.0795087,15.7266667 C70.0514238,15.6666667 70.0332512,15.6033333 70.0002101,15.545 C69.9242157,15.4033333 69.8350048,15.27 69.7325775,15.145 C66.7588813,11.575 63.2300952,8.585 59.2387342,6.255 L59.2370821,6.255 C59.2271698,6.24833333 59.2156054,6.24666667 59.2040411,6.24 C59.076833,6.16833333 58.9430166,6.105 58.8042441,6.05833333 C58.708425,6.025 58.6109539,6.01 58.5134827,5.99 C58.4573129,5.97833333 58.4044472,5.96 58.3499295,5.95166667 C58.2475021,5.94 58.1434228,5.94166667 58.0409955,5.94166667 C57.9881298,5.94166667 57.935264,5.935 57.8823983,5.93833333 C57.7750149,5.945 57.6692834,5.96833333 57.563552,5.99 C57.5172945,6 57.471037,6 57.4247795,6.01166667 C57.3834782,6.025 57.347133,6.04333333 57.3074837,6.05666667 C57.1984482,6.09333333 57.0910648,6.12833333 56.9886374,6.18 C56.9407279,6.20333333 56.8977745,6.235 56.851517,6.26333333 C56.7623061,6.315 56.6714432,6.36333333 56.5904926,6.42666667 C56.5458871,6.46 56.511194,6.50333333 56.4682406,6.54 C56.3922462,6.60666667 56.3162517,6.67166667 56.2485175,6.74833333 C56.1427861,6.86666667 56.0502711,6.99833333 55.9709725,7.13833333 L54.7335845,9.29833333 C54.6493298,9.25666667 54.563423,9.22166667 54.4791683,9.18 C54.1371932,9.015 53.7919141,8.85666667 53.4449829,8.70333333 C53.2731693,8.62666667 53.1030078,8.54666667 52.9311943,8.475 C52.4322741,8.265 51.9317019,8.06333333 51.4245215,7.87666667 C51.3914805,7.86333333 51.3567874,7.85 51.3220942,7.83666667 C50.8116097,7.65 50.294517,7.47833333 49.7741202,7.31666667 C49.5923943,7.25833333 49.4073643,7.20833333 49.2256384,7.155 C48.8654908,7.04833333 48.5020391,6.945 48.1385873,6.85166667 C48.0477244,6.82833333 47.9585135,6.8 47.8676505,6.77666667 L48.2971844,4.31833333 C48.3517022,4 48.3401378,3.685 48.2757077,3.38833333 C48.2757077,3.38333333 48.2757077,3.38 48.2740557,3.375 C48.2443187,3.23666667 48.1980612,3.1 48.1418914,2.96833333 C48.1369352,2.955 48.1352832,2.94166667 48.130327,2.92666667 C48.065897,2.78333333 47.9899025,2.645 47.9006916,2.51666667 L47.8990396,2.515 C47.8907793,2.50166667 47.8792149,2.49166667 47.8693026,2.48 C47.7866999,2.365 47.695837,2.25666667 47.5950617,2.15833333 C47.5636727,2.12833333 47.5289796,2.10666667 47.4975906,2.08 C47.4100317,2.005 47.324125,1.93 47.2283059,1.86666667 C47.1837004,1.83833333 47.1357909,1.82166667 47.0895334,1.79666667 C46.9986704,1.745 46.9094596,1.69333333 46.8119884,1.655 C46.6996488,1.60833333 46.5790489,1.58166667 46.458449,1.55333333 C46.4237559,1.545 46.3923668,1.53 46.3576737,1.525 L46.3560217,1.525 C46.3543696,1.52333333 46.3527176,1.52333333 46.3527176,1.52333333 C41.8591323,0.731666667 37.1524321,0.73 32.663803,1.52333333 L32.6522386,1.52333333 C32.50851,1.55 32.3730416,1.59166667 32.2425294,1.64 C32.2293129,1.64666667 32.2144444,1.64666667 32.201228,1.65166667 C32.0674117,1.70333333 31.9435077,1.77166667 31.8245598,1.845 C31.8129955,1.85166667 31.798127,1.85833333 31.7832585,1.86666667 C31.6659627,1.94333333 31.5602313,2.03 31.457804,2.12333333 C31.4445876,2.135 31.428067,2.14333333 31.4148506,2.15666667 C31.1885193,2.37666667 31.0051413,2.64 30.8795853,2.92833333 C30.8729771,2.945 30.869673,2.96 30.8630648,2.97833333 C30.810199,3.105 30.7639415,3.23666667 30.7342046,3.375 C30.7275964,3.40166667 30.7292484,3.42833333 30.7242923,3.45166667 C30.6995115,3.58 30.6813389,3.71166667 30.6780348,3.84333333 C30.6763827,3.935 30.6895991,4.02833333 30.6978594,4.11833333 C30.7044676,4.18666667 30.7011635,4.25 30.7127279,4.31833333 L31.1422618,6.77666667 C31.0613112,6.79666667 30.9820126,6.82333333 30.8994099,6.845 C30.5078733,6.945 30.1179887,7.055 29.7314082,7.17 C29.572811,7.21666667 29.4125619,7.26 29.2539647,7.31 C28.1735218,7.645 27.1095994,8.03666667 26.0671537,8.48 C25.9118607,8.545 25.7598718,8.615 25.6062308,8.68333333 C25.2361708,8.84666667 24.869415,9.015 24.5059632,9.19166667 C24.4299688,9.22833333 24.3506702,9.26 24.2763278,9.29833333 L23.0389398,7.13666667 C22.9877261,7.04833333 22.923296,6.97166667 22.8638221,6.89166667 C22.829129,6.845 22.8010441,6.79333333 22.7630469,6.75 C22.6787921,6.655 22.5846251,6.57166667 22.488806,6.49166667 C22.4640252,6.47166667 22.4458526,6.44666667 22.4210718,6.42666667 C22.3120363,6.34333333 22.1947405,6.275 22.0757926,6.21166667 C22.055968,6.20166667 22.0427516,6.18833333 22.026231,6.18 C21.7437299,6.04 21.436448,5.95666667 21.1225578,5.93666667 C21.1060373,5.93666667 21.0878647,5.93833333 21.0713442,5.93833333 C20.9342237,5.93166667 20.7971033,5.935 20.6583308,5.95166667 C20.6236377,5.95666667 20.5939007,5.96833333 20.5592076,5.97333333 C20.4402598,5.995 20.3213119,6.01833333 20.2040161,6.05833333 C20.1115011,6.08833333 20.0255944,6.135 19.9396876,6.18 C19.8835178,6.205 19.8256959,6.22333333 19.7711781,6.25333333 L19.7711781,6.255 C15.7814691,8.58166667 12.252683,11.5733333 9.27733485,15.145 C9.17325548,15.27 9.0840446,15.4033333 9.00805014,15.545 C8.97666112,15.6033333 8.95848854,15.6666667 8.93040363,15.73 C8.89571051,15.81 8.85275712,15.8933333 8.82632426,15.9783333 C8.80319552,16.0566667 8.79328319,16.135 8.77841471,16.2133333 C8.76189418,16.2883333 8.74041749,16.3616667 8.73215722,16.44 C8.72389695,16.5283333 8.72885311,16.615 8.72885311,16.7016667 C8.72885311,16.77 8.72059284,16.8383333 8.72720106,16.9066667 C8.73215722,16.9816667 8.75528597,17.0516667 8.76850239,17.125 C8.78171882,17.2066667 8.78997909,17.2866667 8.81310784,17.365 C8.83458453,17.4466667 8.87258176,17.5233333 8.90397077,17.6016667 C8.93040363,17.67 8.95188032,17.7366667 8.98492139,17.8016667 C9.03117889,17.8916667 9.08900076,17.9733333 9.14517057,18.0566667 C9.17655959,18.1033333 9.20299244,18.1533333 9.23933762,18.1983333 C9.33680877,18.325 9.44749635,18.44 9.57305241,18.5433333 L11.4663056,20.1483333 C11.4134399,20.2216667 11.3688345,20.2966667 11.3159688,20.3683333 C11.0830292,20.6966667 10.85835,21.0283333 10.6369748,21.3616667 C10.5428078,21.5033333 10.4469887,21.6433333 10.3561257,21.785 C9.74156185,22.7433333 9.17490753,23.7333333 8.65781481,24.7483333 C8.5801683,24.8966667 8.50913001,25.0516667 8.43313555,25.205 C8.25801789,25.565 8.08455228,25.925 7.92099899,26.2883333 C7.88465382,26.37 7.84335248,26.4466667 7.80700731,26.5266667 L6.41267423,26.0133333 L5.48256815,25.6716667 C5.33057924,25.6166667 5.17528622,25.5783333 5.01834114,25.555 C4.93078231,25.54 4.84487554,25.5433333 4.75896876,25.54 C4.69123457,25.5366667 4.62184832,25.525 4.55411413,25.53 C4.43186218,25.535 4.31456639,25.5566667 4.1972706,25.58 C4.16422953,25.59 4.12788435,25.59 4.09484329,25.5966667 C3.7892134,25.6716667 3.50175611,25.8066667 3.25064399,25.995 C3.23412346,26.0066667 3.22255908,26.02 3.20603855,26.0333333 C3.09865508,26.1166667 2.99622777,26.205 2.90371277,26.3066667 C2.87893197,26.335 2.86075939,26.365 2.83763064,26.3916667 C2.76163618,26.4866667 2.68564172,26.5783333 2.62286369,26.6833333 C2.57495414,26.7616667 2.54191308,26.8466667 2.5055679,26.9283333 C2.47583094,26.9916667 2.43948576,27.05 2.41635702,27.115 C2.41635702,27.1166667 2.41470496,27.1183333 2.41470496,27.1183333 C0.841950113,31.4766667 0.0456603679,36.0583333 0.0456603679,40.7333333 C0.0456603679,42.0666667 1.11784303,43.1483333 2.43618166,43.1483333 L4.90930562,43.1483333 C4.91591383,43.2383333 4.92913026,43.3283333 4.93573847,43.4216667 C4.96547543,43.8116667 5.00347266,44.2033333 5.044774,44.5883333 C5.06459864,44.77 5.08111917,44.9533333 5.10424792,45.1333333 C5.17198211,45.6766667 5.24962862,46.2183333 5.34214361,46.76 C5.34709977,46.78 5.34875183,46.8 5.35205593,46.82 C5.44952708,47.3766667 5.56186672,47.93 5.68577072,48.4816667 C5.72707206,48.6616667 5.77332955,48.8416667 5.81628294,49.02 C5.90549383,49.3933333 6.00131293,49.7666667 6.10208818,50.1366667 C6.12686898,50.2266667 6.14669363,50.3166667 6.17147443,50.405 L3.84538322,51.26 C3.69669841,51.315 3.55627387,51.3833333 3.4241096,51.4633333 C3.37950416,51.495 3.34150693,51.5266667 3.29855354,51.5566667 C3.21595087,51.615 3.13500025,51.6733333 3.06065785,51.74 C3.01605241,51.78 2.97640312,51.8283333 2.93675384,51.8716667 C2.87397581,51.9366667 2.81284984,52.0016667 2.75833207,52.0733333 C2.7219869,52.1233333 2.69059788,52.18 2.65755682,52.2333333 C2.60964727,52.3066667 2.56338977,52.3783333 2.5270446,52.4566667 C2.49730763,52.5133333 2.47583094,52.5733333 2.45270219,52.6333333 C2.42131318,52.7133333 2.38992416,52.7916667 2.36679541,52.875 C2.34862283,52.9383333 2.33705845,53.0016667 2.32549408,53.0683333 C2.30897354,53.15 2.29575712,53.2333333 2.28749685,53.3166667 C2.28254069,53.385 2.28088864,53.4533333 2.28088864,53.5233333 C2.28088864,53.6066667 2.28419274,53.69 2.29245301,53.7733333 C2.29906122,53.845 2.3106256,53.915 2.32549408,53.9866667 C2.33210229,54.0266667 2.33375435,54.07 2.34366667,54.1116667 C2.36183925,54.1883333 2.38662006,54.2666667 2.41470496,54.3433333 C2.41635702,54.345 2.41635702,54.3483333 2.41635702,54.35 C2.41635702,54.3516667 2.41800907,54.3533333 2.41800907,54.3533333 L2.42131318,54.3633333 C3.99572008,58.7266667 6.30198665,62.75 9.27568279,66.3216667 L9.27733485,66.3233333 L9.27733485,66.325 L9.2789869,66.325 C9.39132653,66.46 9.51523054,66.5766667 9.65069892,66.6816667 C9.69200025,66.7133333 9.74156185,66.7383333 9.7861673,66.7666667 C9.87868229,66.8316667 9.97284933,66.8933333 10.0719725,66.9416667 C10.1330985,66.9716667 10.1942245,66.99 10.2570025,67.015 C10.3462134,67.05 10.4354243,67.0833333 10.5295913,67.1066667 C10.6006296,67.1216667 10.6716679,67.1333333 10.7410542,67.145 C10.8302651,67.1583333 10.9178239,67.1716667 11.0053827,67.175 C11.0400758,67.1766667 11.074769,67.1883333 11.1111141,67.1883333 C11.1623278,67.1883333 11.2151935,67.175 11.2680592,67.1716667 C11.3176208,67.1683333 11.3688345,67.1666667 11.4183961,67.1583333 C11.5158672,67.1466667 11.6149904,67.1233333 11.7108095,67.0983333 C11.757067,67.0866667 11.8033245,67.0766667 11.849582,67.0616667 C11.9536614,67.0283333 12.0527846,66.9833333 12.1519078,66.935 C12.189905,66.915 12.2279022,66.9033333 12.2642474,66.8833333 C12.3964117,66.8083333 12.5252719,66.7216667 12.6475238,66.62 L14.5424291,65.0133333 C14.601903,65.075 14.664681,65.13 14.7208508,65.19 C15.0099602,65.4883333 15.3023736,65.7783333 15.5997433,66.065 C15.7137349,66.1733333 15.8260746,66.2866667 15.9417183,66.3916667 C16.7743532,67.1733333 17.6433333,67.9083333 18.5486586,68.6016667 C18.6758667,68.7 18.808031,68.795 18.9385432,68.8916667 C19.2639977,69.135 19.5927564,69.3733333 19.9264712,69.6033333 C19.9975094,69.6516667 20.0652436,69.705 20.1346299,69.755 L18.8972419,71.9183333 C18.2364205,73.0733333 18.6279572,74.5466667 19.7711781,75.2133333 C19.7728302,75.215 19.7744822,75.215 19.7744822,75.215 C23.7724515,77.5466667 28.1057876,79.1383333 32.6538907,79.945 C32.7926631,79.9683333 32.9314356,79.98 33.0685561,79.98 C34.0647443,79.98 34.9634613,79.3483333 35.3087405,78.4083333 C35.3583021,78.2733333 35.3962993,78.1333333 35.4210801,77.9866667 L35.8522661,75.5233333 C35.9414769,75.5316667 36.0290358,75.535 36.1165946,75.545 C36.5031751,75.5816667 36.8897556,75.6116667 37.2779882,75.6366667 C37.458062,75.6483333 37.6381358,75.6633333 37.8182096,75.6716667 C38.3799078,75.7 38.943258,75.7166667 39.5049562,75.7166667 L39.5066082,75.7166667 C40.0666543,75.7166667 40.6283525,75.7 41.1900506,75.6716667 C41.3717765,75.6633333 41.5535024,75.6483333 41.7352283,75.6366667 C42.1218088,75.61 42.5067372,75.5816667 42.8916657,75.545 C42.9792245,75.535 43.0700874,75.5316667 43.1576463,75.5233333 L43.5871801,77.9866667 C43.5970925,78.0466667 43.6218733,78.1016667 43.6367417,78.1616667 C43.6582184,78.2483333 43.6780431,78.3366667 43.7094321,78.4216667 C43.737517,78.4983333 43.7755142,78.5666667 43.8118594,78.6383333 C43.8415964,78.7 43.8680292,78.7616667 43.9043744,78.82 C43.9456757,78.8916667 43.9968894,78.9566667 44.046451,79.0216667 C44.0844482,79.0716667 44.1224455,79.125 44.1620947,79.17 C44.2182646,79.2316667 44.2777385,79.29 44.3405165,79.345 C44.3851219,79.3883333 44.4297274,79.4266667 44.4776369,79.465 C44.5437191,79.515 44.6098012,79.5633333 44.6808395,79.6083333 C44.7337052,79.64 44.7865709,79.6716667 44.8410887,79.6983333 C44.913779,79.7383333 44.9864694,79.7733333 45.0624638,79.8033333 C45.1219378,79.8283333 45.1847158,79.8466667 45.2474938,79.8666667 C45.3234883,79.8916667 45.3978307,79.9133333 45.4754772,79.93 C45.5481675,79.9433333 45.6208579,79.95 45.6935482,79.9566667 C45.7678907,79.965 45.840581,79.975 45.9149234,79.9766667 C45.9248357,79.9766667 45.9314439,79.9783333 45.9413563,79.9783333 C46.0487397,79.9783333 46.1577753,79.965 46.2668108,79.95 C46.2981998,79.9466667 46.3279368,79.95 46.3576737,79.9433333 C46.3642819,79.9433333 46.3692381,79.94 46.3758463,79.9383333 C50.9107329,79.135 55.2374608,77.5466667 59.2403862,75.2133333 C60.3836072,74.5466667 60.7734918,73.0716667 60.1126704,71.9183333 L58.8736304,69.755 C60.8973958,68.3766667 62.7691723,66.79 64.4658312,65.0133333 L66.3623885,66.62 C66.3855173,66.6383333 66.4119501,66.6516667 66.4367309,66.67 C66.5342021,66.7466667 66.6333253,66.8183333 66.7390567,66.8783333 C66.7886183,66.9066667 66.841484,66.9233333 66.8926977,66.9483333 C66.9769524,66.9883333 67.0612071,67.0283333 67.1487659,67.0566667 C67.2065878,67.0766667 67.2660617,67.0883333 67.3222315,67.1033333 C67.4064863,67.1233333 67.492393,67.1433333 67.5782998,67.155 C67.6394258,67.1633333 67.6988997,67.1666667 67.7600257,67.1716667 C67.8062832,67.175 67.8525407,67.1833333 67.9004502,67.1833333 C67.9318393,67.1833333 67.9615762,67.175 67.9929652,67.1733333 C68.0887843,67.17 68.1846034,67.1583333 68.2804225,67.1416667 C68.3448526,67.1316667 68.4109347,67.1216667 68.4737128,67.1066667 C68.572836,67.0816667 68.665351,67.0466667 68.7611701,67.01 C68.8189919,66.9866667 68.8784659,66.9683333 68.9346357,66.9416667 C69.037063,66.8916667 69.13123,66.83 69.2270491,66.7666667 C69.2700025,66.735 69.3179121,66.7116667 69.3592134,66.6783333 C69.4930297,66.575 69.6185858,66.4566667 69.7325775,66.3216667 C72.7079257,62.7466667 75.0158443,58.7183333 76.5935553,54.3516667 C76.646421,54.2033333 76.6860703,54.045 76.709199,53.8866667 C76.7240675,53.7916667 76.7224155,53.6983333 76.7257196,53.6016667 C76.7273716,53.54 76.7356319,53.4783333 76.7339798,53.4166667 C76.7290237,53.3116667 76.707547,53.21 76.6910265,53.1066667 C76.6811141,53.055 76.6794621,53.0016667 76.6662457,52.9533333 C76.6348566,52.8166667 76.5869471,52.6866667 76.5307773,52.5616667 C76.5241691,52.5433333 76.520865,52.5266667 76.5126047,52.5083333 C76.5059965,52.4916667 76.4944321,52.4783333 76.4861718,52.4633333 C76.4250459,52.3366667 76.3573117,52.2166667 76.276361,52.1033333 C76.2400159,52.0533333 76.1954104,52.0133333 76.1557611,51.9666667 C76.0946352,51.8933333 76.0351612,51.82 75.965775,51.7533333 C75.9145614,51.705 75.8534354,51.6683333 75.7989176,51.625 C75.7311834,51.57 75.6667533,51.5133333 75.5924109,51.4683333 C75.4569426,51.385 75.314866,51.315 75.1645291,51.26 L72.8367858,50.405 C73.5108236,48.04 73.9320973,45.6133333 74.0989546,43.1466667 L76.5720786,43.1466667 L76.5720786,43.1466667 Z M67.5436067,61.32 L67.4444835,61.2366667 L65.7726054,59.82 C65.6453973,59.7133333 65.511581,59.6216667 65.3728085,59.545 C64.5649544,59.1033333 63.5753744,59.1783333 62.8352545,59.72 C62.8088216,59.7416667 62.7774326,59.755 62.7509997,59.775 C62.7130025,59.8066667 62.6816135,59.8466667 62.6452683,59.8816667 C62.5610136,59.955 62.4784109,60.0283333 62.4040685,60.115 C60.1473636,62.825 57.471037,65.0933333 54.4527354,66.8533333 C54.3436999,66.9183333 54.2495329,66.995 54.1553658,67.0716667 C54.1239768,67.0966667 54.0876316,67.1166667 54.0611988,67.14 C53.9472071,67.2433333 53.8447798,67.355 53.7555689,67.4733333 C53.7522648,67.4783333 53.7456566,67.4816667 53.7423525,67.4883333 C53.1806543,68.2383333 53.0831832,69.285 53.5771471,70.15 L54.7352366,72.1716667 C52.5380055,73.2583333 50.2399992,74.1016667 47.8693026,74.6916667 L47.4678536,72.4 L47.4678536,72.3983333 C47.4397687,72.2316667 47.3951633,72.0733333 47.3373414,71.925 C47.1622237,71.4783333 46.86155,71.1016667 46.4832298,70.8366667 C46.0123946,70.5016667 45.4209594,70.3483333 44.8146558,70.4283333 C44.7750066,70.4333333 44.7370093,70.4283333 44.7006641,70.4366667 C42.9858327,70.7383333 41.2462205,70.89 39.5033041,70.89 C37.7636919,70.89 36.0207755,70.7383333 34.3109002,70.4366667 C34.2629907,70.4283333 34.2200373,70.4316667 34.1754318,70.4266667 C33.4105311,70.3316667 32.6786715,70.6083333 32.1747952,71.1366667 C32.1186253,71.1983333 32.0707158,71.2683333 32.0195021,71.3366667 C31.9765488,71.39 31.9269872,71.4416667 31.8889899,71.5016667 C31.8196037,71.6083333 31.7650859,71.7233333 31.7155243,71.8433333 C31.7023079,71.87 31.6857874,71.895 31.674223,71.9216667 C31.6345737,72.0233333 31.6114449,72.1316667 31.5850121,72.2416667 C31.5734477,72.2933333 31.551971,72.34 31.5420587,72.3966667 L31.428067,73.045 L31.1389577,74.6916667 C28.766609,74.1 26.4702547,73.2566667 24.2746757,72.1716667 L25.4311131,70.15 C25.5847541,69.8816667 25.675617,69.595 25.7202225,69.3066667 C25.7235266,69.285 25.7301348,69.265 25.7334389,69.2433333 C25.7450033,69.1466667 25.7416992,69.0516667 25.7416992,68.9533333 C25.7416992,68.895 25.7499594,68.8366667 25.7450033,68.7783333 C25.7433512,68.725 25.7284827,68.675 25.7218745,68.625 C25.6244034,67.9083333 25.2246064,67.245 24.5571769,66.8533333 C21.5372232,65.0916667 18.8608967,62.8233333 16.6058438,60.115 C16.518285,60.0116667 16.4208138,59.9216667 16.3216906,59.8366667 C16.3002139,59.8183333 16.2820413,59.7933333 16.2605646,59.775 C16.2523044,59.7683333 16.24074,59.765 16.2341318,59.76 C15.6146117,59.2766667 14.8051056,59.135 14.0715939,59.3633333 C13.7742242,59.455 13.4900711,59.6066667 13.2373069,59.82 L11.4646536,61.32 C10.0207589,59.325 8.79823936,57.1916667 7.80700731,54.9416667 L9.97780549,54.1433333 C10.1297944,54.0883333 10.2735231,54.0166667 10.4106435,53.9316667 C10.4403804,53.915 10.4651612,53.89 10.4932462,53.87 C10.5940214,53.8016667 10.6931446,53.73 10.7823555,53.6483333 C10.8220048,53.6116667 10.8517417,53.5683333 10.8880869,53.5283333 C10.8930431,53.5233333 10.8979992,53.5183333 10.9013034,53.5133333 C10.9657334,53.4433333 11.0334676,53.375 11.0929415,53.2966667 C11.1325908,53.2383333 11.1656319,53.1733333 11.200325,53.1133333 C11.2432784,53.04 11.29284,52.9733333 11.3275331,52.8966667 C11.3473578,52.8516667 11.3589221,52.8033333 11.3754427,52.7566667 C11.4134399,52.6583333 11.4547412,52.5566667 11.4811741,52.455 C11.4943905,52.4016667 11.4960426,52.3516667 11.5043028,52.3 C11.5224754,52.195 11.5439521,52.0933333 11.5472562,51.985 C11.5489083,51.9416667 11.5423001,51.8966667 11.5423001,51.85 C11.540648,51.7383333 11.540648,51.6283333 11.5241275,51.515 C11.5125631,51.4483333 11.4910864,51.3833333 11.4745659,51.3166667 C11.4530892,51.2283333 11.4382207,51.14 11.4068317,51.05 C11.4068317,51.0483333 11.4068317,51.0483333 11.4051796,51.0483333 C11.29284,50.7316667 11.1887606,50.4133333 11.0863333,50.0966667 C10.1099698,47.0833333 9.61104963,43.9383333 9.61104963,40.7333333 C9.61104963,39.4033333 8.54051902,38.3216667 7.22052834,38.3216667 L4.90765357,38.3216667 C5.07616301,35.8533333 5.49578458,33.425 6.16982237,31.0616667 L6.89342177,31.3266667 L8.33896851,31.8583333 L8.34227261,31.8583333 C8.46617662,31.905 8.59008062,31.9366667 8.71563668,31.9616667 C8.725549,31.9616667 8.73546133,31.9666667 8.74537365,31.9683333 C8.75859007,31.9716667 8.7718065,31.9716667 8.78502293,31.9716667 C8.83128042,31.98 8.87753792,31.98 8.92544747,31.985 C9.00309398,31.9916667 9.08074049,32.005 9.158387,32.005 C9.1831678,32.005 9.20629655,32 9.23107735,32 C9.27568279,31.9983333 9.31698413,31.9933333 9.36324162,31.9883333 C9.4491484,31.98 9.53505518,31.9716667 9.62096196,31.955 C9.64904686,31.9483333 9.67547972,31.945 9.70356463,31.9383333 C9.73164953,31.93 9.75973444,31.9216667 9.78781935,31.9133333 C9.89850693,31.8833333 10.0058904,31.8433333 10.1099698,31.8 C10.1198821,31.795 10.1281424,31.795 10.1347506,31.79 C10.1463149,31.785 10.1578793,31.7833333 10.1694437,31.7783333 C10.1743998,31.775 10.179356,31.7716667 10.1859642,31.7716667 C10.3098682,31.7083333 10.4304681,31.6366667 10.5461119,31.5566667 C10.5527201,31.5516667 10.5609803,31.5466667 10.5692406,31.54 C10.5907173,31.5233333 10.610542,31.5016667 10.6320186,31.485 C10.7146213,31.42 10.7906158,31.3516667 10.8633061,31.2783333 C10.8814787,31.26 10.9013034,31.2433333 10.9178239,31.225 C10.9343444,31.21 10.9459088,31.1866667 10.9624293,31.1683333 C11.0268594,31.0933333 11.0863333,31.0133333 11.1408511,30.9316667 C11.1590237,30.9016667 11.1821524,30.8766667 11.200325,30.85 C11.2069332,30.8383333 11.2118894,30.8233333 11.2184976,30.8116667 C11.2878838,30.6933333 11.3490098,30.57 11.3985714,30.4383333 C11.4002235,30.4283333 11.4051796,30.4233333 11.4068317,30.4183333 C12.5996143,27.115 14.3458347,24.065 16.6041917,21.3533333 C16.6041917,21.3516667 16.6058438,21.3516667 16.6058438,21.35 C16.7016629,21.2366667 16.7793094,21.115 16.8486956,20.99 C16.8569559,20.9783333 16.8652162,20.9683333 16.8718244,20.9566667 C16.9428627,20.8283333 16.9973804,20.6933333 17.0419859,20.5566667 C17.04529,20.545 17.0518982,20.535 17.0552023,20.5233333 C17.0998078,20.3816667 17.1278927,20.235 17.1460653,20.0883333 C17.1477173,20.08 17.1510214,20.0716667 17.1510214,20.0633333 C17.1857145,19.7483333 17.1576296,19.4283333 17.0700708,19.125 C17.0618105,19.095 17.04529,19.0666667 17.0353777,19.035 C16.9957284,18.9183333 16.9544271,18.8 16.8966052,18.6883333 C16.8718244,18.6383333 16.8338272,18.5933333 16.8040902,18.5416667 C16.7512245,18.4583333 16.706619,18.3733333 16.643841,18.295 C16.5463699,18.1733333 16.4373343,18.0583333 16.3167344,17.955 C16.3150824,17.9533333 16.3150824,17.9533333 16.3117783,17.9516667 L16.3117783,17.95 L14.540777,16.4516667 C16.2390879,14.675 18.1108644,13.0883333 20.1346299,11.7133333 L21.2894152,13.73 C21.3554974,13.8483333 21.4381,13.9516667 21.5207027,14.055 C21.5372232,14.0733333 21.5487876,14.0983333 21.5653081,14.1166667 C21.5900889,14.145 21.621478,14.1683333 21.6479108,14.1966667 C21.684256,14.2366667 21.7255573,14.27 21.7652066,14.3066667 C21.8048559,14.3416667 21.8428531,14.3866667 21.8874586,14.4183333 C21.8924147,14.425 21.8990229,14.4333333 21.9056311,14.4383333 C21.9700612,14.4866667 22.0410995,14.5233333 22.1088337,14.5666667 C22.150135,14.5933333 22.1881323,14.62 22.2327377,14.6433333 C22.5631484,14.8233333 22.9299043,14.92 23.3065724,14.9283333 C23.324745,14.93 23.3445697,14.935 23.3610902,14.935 C23.3908272,14.935 23.4189121,14.9266667 23.446997,14.925 C23.5923777,14.92 23.7361063,14.9 23.879835,14.8683333 C23.911224,14.8616667 23.9442651,14.8616667 23.9756541,14.8533333 C23.9921746,14.85 24.005391,14.84 24.0219116,14.835 C24.2036374,14.7816667 24.3837113,14.7133333 24.5555248,14.6133333 C24.5571769,14.6116667 24.5571769,14.6116667 24.5588289,14.6116667 C27.5886949,12.8433333 30.869673,11.64 34.3109002,11.0316667 C34.4694974,11.0033333 34.6247904,10.9583333 34.7718231,10.9 C34.7751272,10.9 34.7767793,10.8983333 34.7784313,10.8983333 C34.8428614,10.8716667 34.8973792,10.835 34.9568531,10.805 C35.0361517,10.765 35.1154502,10.7316667 35.1897926,10.685 C35.1914447,10.6833333 35.1947488,10.6833333 35.1964009,10.6816667 C35.2674392,10.6366667 35.3269131,10.5783333 35.3913432,10.5266667 C35.4442089,10.4816667 35.5036828,10.445 35.5532444,10.395 C35.5565485,10.3933333 35.5565485,10.3916667 35.5582006,10.3916667 C35.632543,10.3183333 35.695321,10.235 35.7597511,10.1533333 C35.7911401,10.1133333 35.8291373,10.0816667 35.8572222,10.04 C35.8687866,10.0216667 35.8770469,10.0016667 35.8886112,9.98166667 C35.9613016,9.87166667 36.0290358,9.75833333 36.0835535,9.63833333 C36.0852056,9.635 36.0852056,9.63333333 36.0852056,9.63 C36.1066823,9.58333333 36.1165946,9.53333333 36.1347672,9.48666667 C36.1678083,9.39166667 36.2074575,9.29666667 36.2289342,9.19833333 L36.2289342,9.19666667 C36.2305863,9.19166667 36.2305863,9.18666667 36.2322383,9.18166667 C36.2454548,9.12666667 36.2454548,9.06666667 36.253715,9.01 C36.2669315,8.92 36.2851041,8.83166667 36.2884082,8.74 C36.2884082,8.735 36.2900602,8.73 36.2900602,8.725 L36.2900602,8.715 C36.2933643,8.55666667 36.2817999,8.395 36.2553671,8.23666667 L36.0207755,6.90666667 L35.8539181,5.94333333 C38.2741764,5.68833333 40.7340839,5.68833333 43.1543422,5.94333333 L42.7545452,8.23666667 C42.6983754,8.55666667 42.7099398,8.87666667 42.7760219,9.175 L42.7760219,9.17833333 C42.809063,9.32666667 42.8569725,9.46833333 42.9164465,9.60666667 C42.9197506,9.61166667 42.9197506,9.61833333 42.9230547,9.625 C42.9858327,9.77166667 43.0634792,9.91166667 43.1543422,10.04 C43.1725147,10.0683333 43.1972955,10.09 43.2171202,10.1166667 C43.2898105,10.2116667 43.3641529,10.3083333 43.4517118,10.3916667 C43.4533638,10.3933333 43.4566679,10.395 43.45832,10.3983333 C43.4764926,10.415 43.4963172,10.4266667 43.5144898,10.4416667 C43.5640514,10.4883333 43.6202212,10.5283333 43.674739,10.5716667 C43.7226485,10.6066667 43.7622978,10.6483333 43.8118594,10.6816667 C43.8168156,10.6833333 43.8217717,10.6866667 43.8267279,10.6883333 C43.8482046,10.7033333 43.8729854,10.7116667 43.8961141,10.725 C44.0068017,10.7933333 44.1207934,10.855 44.2430454,10.9033333 C44.3025193,10.925 44.3652973,10.9366667 44.4247712,10.955 C44.5156342,10.9816667 44.603193,11.015 44.6990121,11.0316667 C48.1402394,11.64 51.4212174,12.845 54.4510834,14.6116667 L54.4527354,14.6116667 L54.4527354,14.6133333 C54.622897,14.7116667 54.8013187,14.78 54.9813925,14.8333333 C54.9979131,14.8383333 55.0160857,14.85 55.0326062,14.855 C55.0689514,14.865 55.1069486,14.8616667 55.1449458,14.87 C55.2787622,14.9 55.4125785,14.9183333 55.5463948,14.925 C55.5794359,14.9266667 55.6124769,14.9383333 55.645518,14.9383333 C55.6686468,14.9383333 55.6901235,14.93 55.7132522,14.9283333 C55.8883699,14.9233333 56.0601834,14.9033333 56.2270408,14.8616667 C56.2386052,14.8583333 56.2501696,14.8583333 56.2600819,14.855 L56.2666901,14.855 C56.2782545,14.8516667 56.2898188,14.845 56.3013832,14.8416667 C56.4401557,14.8016667 56.573972,14.7533333 56.7028322,14.6883333 C56.727613,14.6766667 56.7490897,14.6583333 56.7722184,14.6466667 C56.8184759,14.6216667 56.8614293,14.5916667 56.9076868,14.5633333 C56.9721169,14.5233333 57.038199,14.4866667 57.099325,14.4416667 C57.1373222,14.4116667 57.1687113,14.375 57.2050564,14.3416667 C57.2182729,14.3316667 57.2298372,14.3183333 57.2414016,14.3083333 C57.2827029,14.2716667 57.3223522,14.2366667 57.3603495,14.1966667 C57.3884344,14.17 57.4181713,14.1483333 57.4413001,14.1183333 C57.5470315,14 57.6395465,13.87 57.7204971,13.73 L58.8736304,11.7133333 C60.8990479,13.09 62.7708244,14.675 64.4674832,16.4516667 L62.696482,17.9516667 C62.6518765,17.9883333 62.6188355,18.035 62.5775341,18.075 C62.5048438,18.1466667 62.4288493,18.215 62.3660713,18.2933333 C62.2966851,18.3816667 62.2421673,18.4766667 62.1859975,18.5716667 C62.1628687,18.6116667 62.1331318,18.6483333 62.1116551,18.69 C62.0620935,18.7883333 62.0257483,18.8916667 61.9894031,18.9966667 C61.9728826,19.04 61.9514059,19.0816667 61.9381895,19.1283333 C61.9018443,19.255 61.8803676,19.385 61.8654991,19.515 C61.8638471,19.5416667 61.8539347,19.565 61.8522827,19.59 C61.8489786,19.6183333 61.8555868,19.65 61.8539347,19.68 C61.8456745,19.8066667 61.8440224,19.9333333 61.8572389,20.06 C61.862195,20.1016667 61.8754114,20.1433333 61.8836717,20.185 C61.9001922,20.2983333 61.9200169,20.4116667 61.9530579,20.5216667 C61.9662744,20.56 61.986099,20.595 62.0009675,20.6333333 C62.0389647,20.7433333 62.0802661,20.8516667 62.1364359,20.9566667 C62.1909536,21.0566667 62.2603399,21.1483333 62.3297261,21.2433333 C62.356159,21.2766667 62.3743316,21.315 62.4024165,21.35 C62.4024165,21.3516667 62.4040685,21.3516667 62.4040685,21.3516667 C64.6607735,24.0633333 66.408646,27.1133333 67.5997765,30.4116667 C67.6014286,30.4133333 67.6014286,30.415 67.6014286,30.4166667 C67.6509902,30.5566667 67.7170723,30.685 67.7881106,30.8083333 C67.7947188,30.82 67.799675,30.8333333 67.8062832,30.8466667 C67.8806256,30.97 67.9665324,31.0816667 68.0606994,31.1883333 C68.0706117,31.2 68.078872,31.2133333 68.0871323,31.2233333 C68.1862555,31.3316667 68.2969431,31.4283333 68.4125868,31.5166667 C68.4208471,31.5233333 68.4274553,31.5316667 68.4340635,31.5366667 C68.6950879,31.73 68.9924575,31.865 69.3096518,31.9383333 C69.3575614,31.9516667 69.4038188,31.9533333 69.4533804,31.9616667 C69.5673721,31.98 69.6813638,31.995 69.7986596,31.9983333 C69.8151801,32 69.8317007,32.005 69.8498733,32.005 C69.9192595,32.005 69.9902978,31.9916667 70.0613361,31.985 C70.1175059,31.98 70.1720237,31.98 70.2281935,31.9716667 C70.3768783,31.9466667 70.5239111,31.9116667 70.6676397,31.8583333 L72.8384379,31.0633333 C73.5108236,33.4266667 73.9337493,35.8533333 74.0989546,38.32 L71.7877319,38.32 C71.1582996,38.32 70.5916453,38.5716667 70.1637634,38.9733333 C70.1422867,38.995 70.1175059,39.0066667 70.0960292,39.0266667 C70.0002101,39.1233333 69.9192595,39.2316667 69.841613,39.34 C69.8317007,39.355 69.8151801,39.3683333 69.8052678,39.3866667 C69.7441418,39.4816667 69.6945802,39.58 69.6466707,39.6816667 C69.6268461,39.7216667 69.6020653,39.76 69.5838927,39.7983333 C69.4599887,40.0933333 69.3939065,40.41 69.3939065,40.7316667 C69.3939065,40.74 69.3972106,40.7516667 69.3972106,40.7616667 C69.3939065,44.295 68.790907,47.7516667 67.6063847,51.0416667 C67.6047327,51.0433333 67.6030806,51.0483333 67.6014286,51.05 C67.150418,52.3033333 67.7897627,53.6866667 69.0304548,54.1433333 L71.201253,54.94 C70.2100209,57.1916667 68.9875014,59.325 67.5436067,61.32 L67.5436067,61.32 Z" id="Fill-84" fill="#009BDF"></path>
                    <path d="M48.9480935,34.985 C47.6941849,35.41 47.0201471,36.7766667 47.4397687,38.04 C48.4574336,41.1033333 47.6842726,44.4216667 45.4226115,46.7033333 C42.159806,49.9983333 36.8484543,49.9966667 33.5856488,46.705 C30.3228433,43.4116667 30.3228433,38.055 33.5839967,34.7633333 C35.8522661,32.475 39.1481126,31.6966667 42.191195,32.7316667 C43.4401474,33.1583333 44.7981353,32.4816667 45.221061,31.2183333 C45.6439866,29.955 44.9699489,28.5866667 43.7193444,28.1616667 C38.943258,26.5366667 33.7657226,27.7566667 30.2022434,31.35 C25.0759216,36.525 25.0759216,44.9433333 30.2038954,50.1166667 C32.7678823,52.7033333 36.1364192,53.9966667 39.5049562,53.9966667 C42.871841,53.9966667 46.2403779,52.7033333 48.8060169,50.1166667 C52.3562797,46.5316667 53.572191,41.3166667 51.9763074,36.5066667 C51.5550338,35.2466667 50.2053061,34.5616667 48.9480935,34.985" id="Fill-85" fill="#009BDF"></path>
                </g>
            </g>
        </g>
    </g>
</svg>